<svg width="250" height="103" viewBox="0 0 250 103" fill="none" xmlns="http://www.w3.org/2000/svg">
<path d="M214.729 34.3289V35.7991H217.847V47.21H219.483V35.7991H222.608V34.3289H214.729Z" fill="#1E1E1C"/>
<path d="M203.733 34.3289H195.854V35.7991H198.979V47.21H200.616V35.7991H203.733V34.3289Z" fill="#1E1E1C"/>
<path d="M193.547 34.3289H191.908V47.21H193.547V34.3289Z" fill="#1E1E1C"/>
<path d="M185.651 39.5917L184.709 39.2326C183.89 38.9251 182.879 38.3963 182.879 37.3874C182.879 36.2592 184.03 35.56 185.075 35.56C186.069 35.56 186.696 35.9687 187.185 36.7724L188.492 36.0033C187.777 34.7555 186.576 34.0564 185.111 34.0564C183.123 34.0564 181.24 35.3034 181.24 37.3874C181.24 39.181 182.601 40.0194 184.099 40.65L185.006 41.0261C186.138 41.4877 187.272 42.0858 187.272 43.4693C187.272 44.8188 186.261 45.9803 184.849 45.9803C183.437 45.9803 182.286 44.9552 182.303 43.5378L180.647 43.8807C180.927 45.9464 182.583 47.484 184.709 47.484C187.063 47.484 188.911 45.8107 188.911 43.4693C188.911 41.3167 187.516 40.3093 185.651 39.5917Z" fill="#1E1E1C"/>
<path d="M167.672 45.7419H162.252V40.873H167.517V39.4042H162.252V35.7991H167.672V34.3289H160.615V47.21H167.672V45.7419Z" fill="#1E1E1C"/>
<path d="M158.912 34.3289H157.12L153.21 43.8627L149.293 34.3289H147.494L153.21 47.8948L158.912 34.3289Z" fill="#1E1E1C"/>
<path d="M145.786 34.3289H144.147V47.21H145.786V34.3289Z" fill="#1E1E1C"/>
<path d="M130.7 37.6104L140.563 47.7407V34.329H138.927V43.8454L129.056 33.7144V47.2101H130.7V37.6104Z" fill="#1E1E1C"/>
<path d="M121.281 47.4844C124.297 47.4844 126.092 45.3148 126.092 42.4786V34.3289H124.453V41.9328C124.453 44.033 123.809 45.9807 121.281 45.9807C118.753 45.9807 118.108 44.033 118.108 41.9328V34.3289H116.47V42.4786C116.47 45.3148 118.265 47.4844 121.281 47.4844Z" fill="#1E1E1C"/>
<path d="M178.327 38.0035C178.327 36.7727 177.7 35.5603 176.601 34.9269C175.556 34.3479 174.3 34.3289 173.132 34.3289H171.146V47.21H172.784V41.761H173.464L177.333 47.21H179.321L175.172 41.6082C177.073 41.3856 178.327 39.8472 178.327 38.0035ZM173.306 40.429H172.784V35.7653H173.219C174.84 35.7653 176.793 36.0544 176.793 38.0714C176.793 40.1215 174.981 40.429 173.306 40.429Z" fill="#1E1E1C"/>
<path d="M211.805 36.2922C212.381 36.2922 212.851 35.8312 212.851 35.2509C212.851 34.6867 212.381 34.2258 211.805 34.2258C211.212 34.2258 210.742 34.6867 210.742 35.2509C210.742 35.8312 211.212 36.2922 211.805 36.2922Z" fill="#1E1E1C"/>
<path d="M202.948 47.2102H204.708L206.208 43.9823H212.239L213.738 47.2102H215.499L209.222 33.7839L202.948 47.2102ZM206.887 42.5126L209.222 37.3025L211.559 42.5126H206.887Z" fill="#1E1E1C"/>
<path d="M206.636 36.2922C207.23 36.2922 207.7 35.8312 207.7 35.2509C207.7 34.6867 207.23 34.2258 206.636 34.2258C206.061 34.2258 205.59 34.6867 205.59 35.2509C205.59 35.8312 206.061 36.2922 206.636 36.2922Z" fill="#1E1E1C"/>
<path d="M118.104 53.3857H116.468V66.2669H122.095V64.7981H118.104V53.3857Z" fill="#1E1E1C"/>
<path d="M169.938 61.2445H173.337C173.267 63.3462 171.072 65.0718 169.032 65.0718C166.19 65.0718 163.924 62.5092 163.924 59.8101C163.924 56.923 166.226 54.5816 169.171 54.5816C170.776 54.5816 172.361 55.4186 173.302 56.684L174.453 55.6066C173.164 54.0189 171.141 53.1125 169.102 53.1125C165.319 53.1125 162.286 56.1531 162.286 59.861C162.286 63.431 165.249 66.5408 168.928 66.5408C172.606 66.5408 175.15 63.8248 175.15 60.288V59.7754H169.938V61.2445Z" fill="#1E1E1C"/>
<path d="M159.981 53.3857H158.342V66.2669H159.981V53.3857Z" fill="#1E1E1C"/>
<path d="M147.708 53.5298V55.0008H153.425L146.768 66.4117H156.098V64.9421H149.434L156.098 53.5298H147.708Z" fill="#1E1E1C"/>
<path d="M135.619 53.3857H133.98V66.2669H135.619V53.3857Z" fill="#1E1E1C"/>
<path d="M123.732 66.2669H130.796V64.7981H125.376V59.9298H130.633V58.4603H125.376V54.8546H130.796V53.3857H123.732V66.2669Z" fill="#1E1E1C"/>
<path d="M141.141 53.3857H139.257V66.2669H140.895V60.8688H141.837C144.33 60.8688 146.44 59.8267 146.44 57.1099C146.44 54.7523 145.184 53.3857 141.141 53.3857ZM141.42 59.4336H140.895V54.8215H141.332C142.953 54.8215 144.905 55.0605 144.905 57.0767C144.905 59.1261 143.092 59.4336 141.42 59.4336Z" fill="#1E1E1C"/>
<path d="M107.013 17.113H106.627V83.1426H107.013V17.113Z" fill="#1E1E1C"/>
<path d="M63.3997 17.113C44.7789 17.113 29.6294 31.9241 29.6294 50.1275C29.6294 68.3308 44.7796 83.1426 63.3997 83.1426C82.0213 83.1426 97.1701 68.3308 97.1701 50.1275C97.1701 31.9241 82.0206 17.113 63.3997 17.113ZM63.3997 82.7618C44.9936 82.7618 30.0196 68.1216 30.0196 50.1275C30.0196 32.1333 44.9936 17.4945 63.3997 17.4945C81.8059 17.4945 96.7813 32.1333 96.7813 50.1275C96.7813 68.1216 81.8066 82.7618 63.3997 82.7618Z" fill="#1E1E1C"/>
<path d="M55.1124 40.3736C55.1189 40.3778 55.2477 40.4308 55.2512 40.4308C55.26 40.4308 55.3282 40.4633 55.3359 40.4641C55.3992 40.4457 55.4241 40.3877 55.4566 40.3255C55.4588 40.3227 55.6349 40.0314 55.7654 39.8031C55.8399 39.6709 55.9477 39.5351 56.1852 39.5988C56.2615 39.6171 56.3992 39.6659 56.5034 39.7055C56.5088 39.6921 56.5146 39.6801 56.5236 39.668C56.5399 39.6482 56.5547 39.6285 56.5666 39.6051C56.567 39.6051 56.5804 39.5754 56.5837 39.5718C56.5966 39.538 56.6067 39.5054 56.6173 39.4701C56.6017 39.4503 56.5927 39.4255 56.5865 39.4008C56.5583 39.388 56.5366 39.3668 56.52 39.3435C56.4752 39.3287 56.4318 39.3131 56.392 39.2969C56.0315 39.152 55.6667 39.2735 55.4722 39.615C55.3735 39.7896 55.1742 40.0391 55.1142 40.1586C55.077 40.2293 55.0477 40.3212 55.1124 40.3736Z" fill="#1E1E1C"/>
<path d="M54.9098 39.5696C55.0105 39.5929 55.1059 39.5075 55.1269 39.4652C55.1457 39.4221 55.0994 39.3197 55.0788 39.2801C55.059 39.2427 55.0156 39.2095 54.9397 39.1834C54.8632 39.158 54.7859 39.1855 54.7859 39.1855C54.7859 39.1855 54.6639 39.2293 54.6342 39.2801C54.6035 39.3338 54.6447 39.4164 54.6863 39.4673C54.7292 39.5188 54.8083 39.5456 54.9098 39.5696Z" fill="#1E1E1C"/>
<path d="M54.8525 40.6791C54.7667 40.6176 54.6778 40.6996 54.6778 40.6996C54.6778 40.6996 54.6348 40.759 54.6348 40.8439C54.6348 40.9286 54.6326 41.0814 55.0083 41.169C55.15 41.2029 55.2303 41.1683 55.2765 41.0552C55.376 40.8092 55.0376 40.8113 54.8525 40.6791Z" fill="#1E1E1C"/>
<path d="M71.9413 39.8068C72.0687 39.8209 72.1746 39.7031 72.193 39.6473C72.2114 39.5929 72.1389 39.4729 72.1088 39.4284C72.0785 39.3832 72.0207 39.3478 71.9225 39.3281C71.8235 39.3055 71.7336 39.3507 71.7336 39.3507C71.7336 39.3507 71.5891 39.4206 71.5596 39.4898C71.5295 39.559 71.5917 39.6551 71.6524 39.7129C71.7112 39.7687 71.813 39.792 71.9413 39.8068Z" fill="#1E1E1C"/>
<path d="M75.4649 48.237C75.5574 48.2461 75.6325 48.1621 75.6476 48.1219C75.6599 48.0824 75.6075 47.9955 75.5866 47.9644C75.5643 47.9326 75.5231 47.908 75.4523 47.8917C75.3811 47.8754 75.3161 47.9086 75.3161 47.9086C75.3161 47.9086 75.2114 47.9588 75.1897 48.0089C75.1692 48.0591 75.2139 48.1283 75.2573 48.1692C75.2992 48.2095 75.3732 48.2264 75.4649 48.237Z" fill="#1E1E1C"/>
<path d="M70.0873 39.3398C70.0432 39.3088 69.9761 39.2961 69.8771 39.3102C69.7781 39.3222 69.7081 39.3935 69.7081 39.3935C69.7081 39.3935 69.5982 39.51 69.5943 39.5849C69.5911 39.659 69.6832 39.7289 69.7601 39.7621C69.8359 39.7946 69.9392 39.7812 70.0649 39.7515C70.1898 39.7233 70.2462 39.575 70.2448 39.5178C70.2422 39.4598 70.1324 39.3724 70.0873 39.3398Z" fill="#1E1E1C"/>
<path d="M56.3908 40C56.3113 39.9816 56.2394 40.0184 56.2394 40.0184C56.2394 40.0184 56.1213 40.0756 56.0986 40.1314C56.0744 40.1872 56.1239 40.2634 56.173 40.31C56.2196 40.3559 56.3019 40.375 56.4059 40.3863C56.5093 40.3983 56.593 40.3023 56.6089 40.2578C56.6237 40.2126 56.5648 40.1166 56.541 40.0806C56.5161 40.0446 56.4698 40.017 56.3908 40Z" fill="#1E1E1C"/>
<path d="M42.1383 66.7549L40.9307 67.0166L39.9353 65.6542L40.5865 64.6313L40.2983 64.2375L37.9282 68.06L42.4224 67.1437L42.1383 66.7549ZM38.783 67.476L39.6995 66.0296L40.4878 67.1084L38.783 67.476Z" fill="#1E1E1C"/>
<path d="M38.9952 61.8193L38.6294 62.0083L39.144 62.9653L35.9629 64.602L36.1717 64.9893L39.7186 63.1622L38.9952 61.8193Z" fill="#1E1E1C"/>
<path d="M38.5728 61.1054L38.4225 60.6834L35.6916 61.0772L35.6879 61.067L37.9826 58.9561L34.8415 58.6854L34.8385 58.6752L37.231 57.3295L37.0807 56.9075L33.3442 59.0169L37.0037 59.2884L34.3017 61.7128L38.5728 61.1054Z" fill="#1E1E1C"/>
<path d="M36.8306 55.5626L35.6327 55.2615L35.376 53.6065L36.4293 52.9822L36.3563 52.5044L32.4727 54.862L36.9036 56.0348L36.8306 55.5626ZM33.5046 54.7192L34.9924 53.8377L35.1949 55.1476L33.5046 54.7192Z" fill="#1E1E1C"/>
<path d="M36.2277 50.4908L36.2625 50.0464L33.596 49.3434L33.5975 49.3326L36.5631 48.2909L33.7923 46.8185L33.793 46.8083L36.5357 46.5057L36.5705 46.0598L32.2824 46.5398L35.5294 48.2149L32.0625 49.3869L36.2277 50.4908Z" fill="#1E1E1C"/>
<path d="M36.7854 45.2258L35.7969 44.5004L36.2061 42.8745L37.4239 42.6914L37.5425 42.2234L33.0327 42.9508L36.6685 45.6895L36.7854 45.2258ZM35.4371 44.2318L34.0422 43.2046L35.7614 42.9437L35.4371 44.2318Z" fill="#1E1E1C"/>
<path d="M34.727 39.6336L38.077 40.9091L38.2384 40.5016L34.8892 39.2261L35.2446 38.3356L34.8581 38.1865L33.9888 40.3677L34.3753 40.5153L34.727 39.6336Z" fill="#1E1E1C"/>
<path d="M40.1385 36.7083L39.7742 36.5151L38.9915 37.9144L37.6098 37.1767L38.371 35.8165L38.0067 35.6218L37.2462 36.9812L36.2014 36.4224L36.9855 35.0224L36.6212 34.8269L35.623 36.6106L39.1403 38.492L40.1385 36.7083Z" fill="#1E1E1C"/>
<path d="M41.3067 34.9994L39.8796 33.9906L39.945 33.903L42.0823 33.9489L42.4026 33.5149L40.2017 33.5007C40.3594 33.2405 40.4104 32.9811 40.3536 32.7231C40.2972 32.4657 40.1443 32.2481 39.8937 32.0713C39.526 31.8118 39.197 31.7602 38.9063 31.9164C38.6163 32.0727 38.3585 32.3003 38.1333 32.5986L37.7944 33.0589L41.0453 35.3529L41.3067 34.9994ZM39.6504 33.6534C39.6489 33.6548 39.6467 33.6555 39.6413 33.6563L39.5607 33.7665L38.3925 32.9416L38.4702 32.8369C38.6275 32.6227 38.7974 32.4565 38.9804 32.3364C39.1626 32.2177 39.3879 32.253 39.6562 32.4424C39.9071 32.6206 40.0065 32.8164 39.9526 33.0299C39.8998 33.2448 39.8004 33.4513 39.6547 33.6471C39.6536 33.6506 39.6515 33.6527 39.6504 33.6534Z" fill="#1E1E1C"/>
<path d="M85.923 35.5523L86.2562 35.3148L85.612 34.4382L88.5221 32.3801L88.2629 32.0261L85.0122 34.3216L85.923 35.5523Z" fill="#1E1E1C"/>
<path d="M90.254 34.9727L86.7773 36.9246L86.9999 37.3035L90.4766 35.3516L90.254 34.9727Z" fill="#1E1E1C"/>
<path d="M88.1888 39.6092L89.8075 38.9468L89.9327 39.238C89.9409 39.2578 89.9489 39.2776 89.9576 39.296C89.9652 39.3144 89.9742 39.3349 89.9818 39.3546C90.0443 39.4826 90.1199 39.6049 90.2081 39.7201C90.296 39.8368 90.4077 39.9301 90.5451 39.9973C90.6825 40.068 90.8311 40.1061 90.9895 40.1083C91.1475 40.1111 91.2997 40.0864 91.4465 40.034C91.4534 40.0312 91.4592 40.0284 91.4657 40.0248C91.4726 40.0227 91.4787 40.0199 91.4851 40.0178C91.6479 39.9506 91.791 39.8523 91.9133 39.7216C92.0358 39.5901 92.1146 39.4381 92.1519 39.2656C92.1826 39.1214 92.1819 38.9786 92.1505 38.8379C92.1183 38.6965 92.076 38.558 92.0214 38.4229C92.012 38.3996 92.0026 38.3784 91.9924 38.3564C91.9834 38.3324 91.9755 38.3091 91.9686 38.2872L91.7137 37.6926L88.0156 39.2069L88.1888 39.6092ZM91.5043 38.2497L91.5676 38.3996C91.5694 38.4024 91.5702 38.4052 91.5713 38.4073C91.5716 38.4088 91.5727 38.4102 91.5744 38.4144C91.6735 38.6477 91.7318 38.8747 91.747 39.0959C91.7628 39.3179 91.6211 39.4883 91.3225 39.6106C91.0574 39.7201 90.8441 39.7102 90.6839 39.5851C90.5234 39.4579 90.398 39.284 90.3047 39.0591L90.1897 38.7891L91.5043 38.2497Z" fill="#1E1E1C"/>
<path d="M91.7359 42.2768C91.6383 42.4769 91.5699 42.7003 91.5294 42.947L91.4828 43.2057C91.4813 43.2136 91.4806 43.2199 91.4795 43.2249C91.4788 43.2319 91.4784 43.2376 91.4766 43.2461C91.4438 43.437 91.3931 43.6123 91.3262 43.7749C91.2593 43.936 91.1165 44.0456 90.8971 44.1008C90.6768 44.1566 90.4751 44.1241 90.2907 44.0025C90.1067 43.8809 89.9874 43.7183 89.9327 43.5133C89.8782 43.309 89.9035 43.1195 90.0076 42.9464C90.1117 42.7731 90.2614 42.6473 90.4567 42.5695L90.2238 42.1871C89.9375 42.3242 89.7321 42.5222 89.6063 42.7809C89.4808 43.0369 89.4584 43.3189 89.539 43.6243C89.6265 43.953 89.8152 44.2047 90.1053 44.38C90.3955 44.5553 90.7105 44.5998 91.0503 44.5136C91.3587 44.4351 91.567 44.286 91.6729 44.0689C91.7804 43.8498 91.857 43.6016 91.9047 43.3245L91.9456 43.0446C91.9496 43.0191 91.9546 42.9916 91.959 42.9619C91.9636 42.9315 91.9698 42.9025 91.9759 42.8714C92.0024 42.7498 92.0454 42.6325 92.1054 42.5186C92.1647 42.4048 92.2612 42.3313 92.3953 42.2967C92.5739 42.2521 92.7356 42.2783 92.8806 42.3751C93.0252 42.4734 93.1196 42.6055 93.164 42.7731C93.2071 42.935 93.2053 43.075 93.1583 43.1952C93.1109 43.314 93.0317 43.427 92.9215 43.5331L93.2295 43.813C93.3937 43.6632 93.505 43.4907 93.5639 43.2956C93.6232 43.0976 93.6247 42.8933 93.5683 42.6819C93.4934 42.3992 93.339 42.175 93.1041 42.0075C92.8683 41.8393 92.6004 41.7941 92.2978 41.8704C92.0201 41.9418 91.8331 42.0768 91.7359 42.2768Z" fill="#1E1E1C"/>
<path d="M93.2331 43.8153L93.2241 43.8135V43.8161L93.2331 43.8153Z" fill="#1E1E1C"/>
<path d="M94.2001 46.1643L90.2246 46.6699L90.2822 47.1029L94.2577 46.5973L94.2001 46.1643Z" fill="#1E1E1C"/>
<path d="M90.4919 51.175L90.9065 51.1728L90.8917 49.5759L92.4689 49.5657L92.4764 51.1149L92.891 51.112L92.8836 49.5621L94.0758 49.5549L94.0832 51.1504L94.4979 51.1475L94.4831 49.1155L90.4771 49.1423L90.4919 51.175Z" fill="#1E1E1C"/>
<path d="M90.3508 53.4509L90.2694 53.8802L93.3127 54.4318L89.5215 56.8518L93.6386 57.6025L93.72 57.1732L90.6692 56.618L94.4605 54.198L90.3508 53.4509Z" fill="#1E1E1C"/>
<path d="M91.9577 59.788C91.6884 59.6883 91.4558 59.6926 91.2584 59.8007C91.0603 59.9089 90.8719 60.0517 90.6926 60.2305L90.5009 60.415C90.4955 60.4193 90.4909 60.425 90.4876 60.4285C90.4832 60.4327 90.4786 60.4377 90.4731 60.4433C90.3328 60.5804 90.1875 60.6957 90.0371 60.789C89.8863 60.8838 89.7048 60.8915 89.4933 60.8123C89.2811 60.7346 89.1361 60.5932 89.0579 60.3896C88.9792 60.186 88.9788 59.9859 89.0558 59.7887C89.1324 59.5907 89.2644 59.4508 89.4517 59.368C89.64 59.2854 89.836 59.2684 90.0414 59.3151L90.0776 58.8718C89.7637 58.823 89.4788 58.8668 89.2239 59.004C88.9679 59.1433 88.7832 59.361 88.6693 59.6558C88.5456 59.9718 88.5496 60.2849 88.6827 60.5925C88.8157 60.8993 89.0457 61.1142 89.3744 61.2365C89.6722 61.3475 89.93 61.3439 90.1466 61.2259C90.3625 61.1078 90.5725 60.9488 90.7753 60.7501L90.9739 60.5466C90.9923 60.5267 91.0126 60.5062 91.0343 60.485C91.0563 60.4631 91.0787 60.4419 91.1022 60.42C91.1955 60.3373 91.2997 60.2659 91.4157 60.2058C91.5317 60.1478 91.654 60.1428 91.7834 60.1903C91.9555 60.2545 92.0719 60.367 92.1327 60.5288C92.1927 60.6893 92.1913 60.8519 92.1291 61.0145C92.0683 61.1701 91.9826 61.2831 91.8741 61.3539C91.7654 61.4231 91.6341 61.4712 91.4804 61.4967L91.5665 61.8975C91.7881 61.8699 91.9808 61.7928 92.145 61.6656C92.311 61.5384 92.4335 61.3723 92.5127 61.1672C92.6179 60.8958 92.6244 60.625 92.5333 60.3557C92.4404 60.0856 92.2488 59.8961 91.9577 59.788Z" fill="#1E1E1C"/>
<path d="M87.5659 62.257L87.3604 62.645L90.9208 64.4477L91.1264 64.0597L87.5659 62.257Z" fill="#1E1E1C"/>
<path d="M88.1535 67.8228V67.821H88.1445L88.1535 67.8228Z" fill="#1E1E1C"/>
<path d="M89.0184 65.8522C88.7802 65.6953 88.5523 65.6479 88.3347 65.7087C88.1174 65.7709 87.9001 65.8684 87.6849 66.0028L87.4561 66.1399C87.4488 66.1435 87.4431 66.1484 87.4387 66.1512C87.434 66.154 87.4286 66.1583 87.4217 66.1618C87.2529 66.2636 87.0851 66.3435 86.9167 66.4022C86.7481 66.4615 86.5695 66.4284 86.3819 66.3047C86.1928 66.1802 86.0843 66.0113 86.055 65.7963C86.0261 65.5814 86.0716 65.3849 86.1924 65.2089C86.3132 65.0343 86.4741 64.9268 86.6759 64.8894C86.8776 64.849 87.0736 64.8759 87.263 64.9671L87.4001 64.5436C87.1057 64.4256 86.8176 64.4058 86.5377 64.4843C86.2575 64.5627 86.0268 64.7338 85.8467 64.9947C85.653 65.2767 85.585 65.5829 85.6432 65.9109C85.7018 66.2389 85.8764 66.4983 86.1674 66.6899C86.4322 66.8645 86.6838 66.9175 86.9217 66.8511C87.16 66.7846 87.4008 66.6757 87.6441 66.5273L87.8849 66.3718C87.908 66.3577 87.9326 66.3421 87.9587 66.3265C87.985 66.3096 88.0118 66.294 88.0389 66.2799C88.1492 66.2177 88.2678 66.171 88.394 66.1399C88.5205 66.1081 88.6413 66.1293 88.7566 66.2056C88.9092 66.306 88.9963 66.4411 89.0177 66.6136C89.0394 66.7832 89.0007 66.9409 88.9023 67.0844C88.8069 67.2229 88.698 67.3134 88.5751 67.3587C88.4529 67.4039 88.3141 67.4209 88.1586 67.4103L88.1499 67.821C88.3723 67.8422 88.578 67.8097 88.7671 67.7221C88.9584 67.6358 89.1157 67.5008 89.2397 67.3191C89.4064 67.0773 89.4761 66.815 89.4483 66.5315C89.4208 66.2495 89.2776 66.0226 89.0184 65.8522Z" fill="#1E1E1C"/>
<path d="M42.6283 30.396C42.8081 30.396 42.9533 30.2541 42.9533 30.0783C42.9533 29.9024 42.8081 29.7598 42.6283 29.7598C42.4488 29.7598 42.3032 29.9024 42.3032 30.0783C42.3032 30.2541 42.4488 30.396 42.6283 30.396Z" fill="#1E1E1C"/>
<path d="M83.9454 29.7632C83.7652 29.7632 83.6196 29.9058 83.6196 30.081C83.6196 30.2568 83.7652 30.3987 83.9454 30.3987C84.1241 30.3987 84.2701 30.2568 84.2701 30.081C84.2701 29.9058 84.1241 29.7632 83.9454 29.7632Z" fill="#1E1E1C"/>
<path d="M42.7283 69.937C42.5484 69.937 42.4033 70.079 42.4033 70.2548C42.4033 70.4313 42.5484 70.5725 42.7283 70.5725C42.9082 70.5725 43.0534 70.4313 43.0534 70.2548C43.0534 70.079 42.9082 69.937 42.7283 69.937Z" fill="#1E1E1C"/>
<path d="M84.2637 69.8264C84.0838 69.8264 83.939 69.9697 83.939 70.1449C83.939 70.3207 84.0838 70.4619 84.2637 70.4619C84.4435 70.4619 84.5894 70.3207 84.5894 70.1449C84.5894 69.9697 84.4435 69.8264 84.2637 69.8264Z" fill="#1E1E1C"/>
<path d="M62.0365 19.7837C44.1421 19.7837 29.582 34.0171 29.582 51.511C29.582 62.6302 35.469 72.4268 44.3517 78.0943L44.5197 78.1989C49.5766 81.3829 55.5877 83.2393 62.0365 83.2393C79.9317 83.2393 94.4903 69.0052 94.4903 51.5113C94.4903 34.0174 79.9317 19.7837 62.0365 19.7837ZM62.0712 21.7242H62.7943V21.3425H62.0712V20.3839C64.0678 20.4305 65.8448 21.2944 66.5524 22.552H62.0712V21.7242ZM67.3724 22.9338V23.5707H56.4089V22.9338H67.3724ZM77.945 35.6839V31.4402C84.3827 36.2495 88.2184 43.8045 88.2184 51.7254C88.2184 52.8156 88.1432 53.8971 88.0019 54.9661H85.3097C85.3097 54.9661 85.293 52.2146 85.2865 50.2408L86.7754 51.5946L87.0647 51.2914L85.2684 49.664C85.2666 48.8461 85.2652 47.0709 85.2652 47.0709C85.3035 47.1621 85.395 47.2279 85.5027 47.2279C85.6445 47.2279 85.7601 47.1155 85.7601 46.9762C85.7601 46.8376 85.6445 46.7245 85.5027 46.7245C85.395 46.7245 85.3035 46.7896 85.2652 46.8815V46.2219C85.3035 46.3131 85.395 46.3789 85.5027 46.3789C85.6445 46.3789 85.7601 46.2665 85.7601 46.1272C85.7601 45.9886 85.6445 45.8762 85.5027 45.8762C85.395 45.8762 85.3035 45.9406 85.2652 46.0324V45.3729C85.3035 45.4655 85.395 45.5298 85.5027 45.5298C85.6445 45.5298 85.7601 45.4167 85.7601 45.2775C85.7601 45.1396 85.6445 45.0265 85.5027 45.0265C85.395 45.0265 85.3035 45.0915 85.2652 45.1834V44.8999H85.1705C85.2525 44.8589 85.3104 44.777 85.3104 44.6801C85.3104 44.5408 85.1951 44.4284 85.053 44.4284C84.9109 44.4284 84.7955 44.5408 84.7955 44.6801C84.7955 44.777 84.853 44.8589 84.9347 44.8999H84.8404V45.1587C84.7966 45.0816 84.7152 45.0265 84.6184 45.0265C84.4763 45.0265 84.3609 45.1396 84.3609 45.2775C84.3609 45.4167 84.4763 45.5298 84.6184 45.5298C84.7152 45.5298 84.7966 45.4754 84.8404 45.3976V46.0077C84.7966 45.9306 84.7152 45.8762 84.6184 45.8762C84.4763 45.8762 84.3609 45.9886 84.3609 46.1272C84.3609 46.2665 84.4763 46.3789 84.6184 46.3789C84.7152 46.3789 84.7966 46.3237 84.8404 46.2474V46.8567C84.7966 46.7797 84.7152 46.7245 84.6184 46.7245C84.4763 46.7245 84.3609 46.8376 84.3609 46.9762C84.3609 47.1155 84.4763 47.2279 84.6184 47.2279C84.7152 47.2279 84.7966 47.1742 84.8404 47.095V49.5509L82.6069 49.5573C82.6066 49.5049 82.5795 41.4264 82.5795 41.4264C82.6182 41.5175 82.7096 41.5833 82.817 41.5833C82.9591 41.5833 83.0745 41.4694 83.0745 41.3309C83.0745 41.1923 82.9591 41.0799 82.817 41.0799C82.7096 41.0799 82.6182 41.1443 82.5795 41.2362V40.5773C82.6182 40.6685 82.7096 40.7342 82.817 40.7342C82.9591 40.7342 83.0745 40.6212 83.0745 40.4819C83.0745 40.3433 82.9591 40.2309 82.817 40.2309C82.7096 40.2309 82.6182 40.2959 82.5795 40.3871V39.7289C82.6182 39.8194 82.7096 39.8845 82.817 39.8845C82.9591 39.8845 83.0745 39.7728 83.0745 39.6328C83.0745 39.4935 82.9591 39.3818 82.817 39.3818C82.7096 39.3818 82.6182 39.4469 82.5795 39.5381V39.2553H82.4851C82.5668 39.2143 82.6243 39.133 82.6243 39.0354C82.6243 38.8983 82.5093 38.7845 82.3669 38.7845C82.2248 38.7845 82.1095 38.8983 82.1095 39.0354C82.1095 39.133 82.1673 39.2143 82.2491 39.2553H82.1547V39.5126C82.1113 39.4363 82.0296 39.3818 81.9327 39.3818C81.7906 39.3818 81.6749 39.4935 81.6749 39.6328C81.6749 39.7728 81.7906 39.8845 81.9327 39.8845C82.0296 39.8845 82.1113 39.8301 82.1547 39.753V40.3624C82.1113 40.2853 82.0296 40.2309 81.9327 40.2309C81.7906 40.2309 81.6749 40.3433 81.6749 40.4819C81.6749 40.6212 81.7906 40.7342 81.9327 40.7342C82.0296 40.7342 82.1113 40.6798 82.1547 40.6013V41.2114C82.1113 41.1351 82.0296 41.0799 81.9327 41.0799C81.7906 41.0799 81.6749 41.1923 81.6749 41.3309C81.6749 41.4694 81.7906 41.5833 81.9327 41.5833C82.0296 41.5833 82.1113 41.5281 82.1547 41.451V45.9557C81.3571 42.4047 79.3352 39.7424 77.9453 38.7859V36.067H79.0347V35.6846L77.945 35.6839ZM77.5441 71.7865C77.5209 71.8147 77.4938 71.8388 77.4649 71.8614C77.4139 71.9201 77.3524 71.9703 77.2773 72.0056C76.9931 72.2142 76.5671 72.2969 76.2692 72.3273C75.9944 72.3634 75.664 72.0961 75.4919 71.9236C75.8997 71.3291 75.7807 70.5635 75.776 70.5359C75.7633 70.4377 75.4503 68.1217 75.2106 67.0267C75.0103 66.1083 75.1701 64.5616 75.6611 62.6656C75.7377 62.3665 75.8093 62.0209 75.8722 61.6363C76.1289 60.0725 76.2124 58.1192 76.1608 57.0751C76.1097 56.0288 75.5288 54.5973 75.2894 54.0473C75.3443 54.0338 75.399 54.0197 75.4528 54.0041C77.4971 56.3859 77.5267 58.0605 77.539 58.9683L77.5492 71.788C77.548 71.7866 77.5455 71.7865 77.5441 71.7865ZM77.5492 72.2884V76.3088L76.5902 76.3066L76.5725 72.6695C76.9854 72.5988 77.3149 72.4694 77.5492 72.2884ZM71.8614 75.2484C71.8614 75.2484 71.8372 74.6786 71.7988 74.4178C71.745 74.0423 71.6394 73.744 71.5519 73.5432C71.63 73.5114 71.7052 73.4705 71.7768 73.411C72.0035 73.2244 72.1083 73.0413 72.1926 72.895C72.2949 72.7154 72.3568 72.6073 72.5552 72.5309C72.8878 72.4807 73.1276 72.5125 73.3811 72.5472C73.4024 72.55 73.4234 72.5528 73.445 72.5557C73.2173 73.0774 72.685 74.3534 72.7017 74.8539C72.7067 74.9917 72.7397 75.1211 72.783 75.2484C72.783 75.2484 72.7834 75.2491 72.7837 75.2505C72.8235 75.3452 73.0495 75.8033 73.1326 75.9405C73.278 76.1858 73.4443 76.4615 73.5966 76.8121C73.6732 76.9896 73.6776 77.1352 73.6088 77.2618C73.4696 77.5177 73.0491 77.6491 72.9175 77.6746C72.5397 77.7085 72.0559 77.6838 71.9409 77.599C71.8473 77.529 71.8675 77.0624 71.8773 76.8376C71.8852 76.6594 71.8574 75.3459 71.8614 75.2484ZM58.5053 79.5515L59.4363 78.1984H59.6399V79.5515H58.5053ZM59.6399 79.9071V80.5462C59.1703 80.5073 58.7567 80.4889 58.4457 80.4818C57.5877 80.4571 57.041 80.5447 56.542 80.6826V78.1984H58.9645L57.7948 79.9036L59.6399 79.9071ZM48.7993 77.8167L48.8018 76.3123L47.6372 76.3095V75.541H49.526L49.5286 75.5517L49.5415 75.541H51.3276C51.1212 75.826 50.9726 76.108 50.9289 76.2487C50.8435 76.5237 50.8692 76.9175 51.4755 77.2349C51.5967 77.2992 51.7507 77.3268 51.9166 77.3268C52.4066 77.3268 52.9977 77.0878 53.1446 76.8546C53.2881 76.6297 53.3148 76.0387 53.2544 75.5665H54.0391C54.1073 75.7425 54.2285 75.9094 54.444 75.9907L54.4899 76.0076C54.6605 76.0741 54.8015 76.1179 54.9433 76.1179C55.179 76.1179 55.4184 75.997 55.801 75.6598C55.9658 75.9518 56.1158 76.1363 56.2742 76.2303C56.3917 76.3003 56.5302 76.4664 56.6647 76.6255C56.9167 76.9259 57.2013 77.2667 57.5758 77.2667C57.6499 77.2667 57.74 77.2702 57.8373 77.2738C57.9645 77.2787 58.103 77.2851 58.2415 77.2851C58.7433 77.2851 59.2574 77.2172 59.3536 76.8227C59.5124 76.1724 58.8196 75.8896 58.4052 75.7199C58.2881 75.6718 58.1818 75.6294 58.1098 75.5849C58.1056 75.5827 58.0962 75.5714 58.0893 75.5665H65.7732C65.646 75.6867 65.5176 75.7878 65.3777 75.8627C64.9001 76.1215 64.4286 76.6644 64.4973 77.1649C64.532 77.4109 64.579 77.6527 64.613 77.8167H48.7993ZM47.2377 65.7362V76.3081L46.2575 76.3074V39.2174C46.6787 39.4308 47.3252 39.6783 48.4692 39.8988C48.4504 40.0741 48.4395 40.2494 48.4395 40.4298C48.4395 41.5474 48.8094 42.6021 49.5065 43.4816C48.8828 43.8923 47.9876 44.5618 47.2811 45.5777C46.82 46.1807 46.7687 48.5475 46.768 48.5708C46.7528 49.3591 47.0016 50.5389 47.1386 50.9942C47.2937 51.5124 47.23 52.0129 47.1798 52.4152C47.1599 52.5757 47.1415 52.722 47.1386 52.8499C47.1325 53.0507 47.0431 53.4423 46.9556 53.8198C46.8551 54.2567 46.7608 54.671 46.768 54.8958C46.7818 55.4133 47.0297 55.8742 47.2377 56.1782V63.7155L46.802 63.8696L47.2377 65.7362ZM46.2575 27.9136V27.4449L50.5687 25.1396V31.2087C49.9826 30.4119 48.9403 29.6343 48.6098 29.3982V27.8825H48.2045V29.4194C47.8979 29.6329 47.02 30.2599 46.2575 30.9421V28.2954H47.1903V27.9136H46.2575ZM48.4218 29.7078C49.0516 30.1609 50.5301 31.3649 50.5687 32.1595V35.6835H46.2575V31.4362C47.042 30.6933 48.0888 29.9411 48.4218 29.7078ZM51.0677 36.066C50.4248 36.4153 49.8699 36.9009 49.4356 37.4785C48.0093 37.207 46.9126 36.879 46.2654 36.527L46.2575 36.539V36.066H51.0677ZM56.963 27.9134V23.9524H66.8425V27.9134H66.0102V28.2952H66.8425V35.6833H66.2354C65.9454 33.5583 62.5861 28.4775 62.1035 27.7558V25.8274H61.6482V27.7665C61.1359 28.5208 57.8869 33.376 57.6063 35.6831H56.9628V28.2949H57.7947V27.9131L56.963 27.9134ZM67.7703 36.066C66.8714 36.5573 66.1415 37.3067 65.6804 38.2108C64.2946 38.0186 63.0975 37.6849 62.2684 37.2911C62.4011 37.2303 62.5508 37.0713 62.5508 37.0713C62.6817 36.9221 62.7623 36.7334 62.7623 36.5248C62.7623 36.3551 62.7102 36.1982 62.6213 36.066H67.7703ZM67.2985 35.6835V31.7544C67.2985 31.174 69.2795 29.8258 69.628 29.582C70.2181 30.0068 71.5938 31.1514 71.7171 31.9247V35.6433C71.2529 35.5076 70.763 35.4326 70.2539 35.4326C69.6978 35.4326 69.1634 35.5217 68.6615 35.6835H67.2985ZM67.0797 42.6144C66.9232 42.3606 66.7608 42.0969 66.7717 41.8431C66.7829 41.5611 66.8975 41.3815 67.0201 41.1913C67.1539 40.9835 67.2927 40.7693 67.2649 40.4512C67.2232 39.9697 67.3639 38.823 68.0585 38.5446C68.6442 38.3056 68.978 38.4385 69.201 38.6308C68.9168 38.6661 68.6615 38.753 68.4804 38.8938C67.9811 39.2811 67.8444 39.6545 67.7703 40.0008C67.7309 40.1875 67.6115 41.3758 67.638 41.7335C67.6687 42.1909 67.8466 42.6363 67.9391 42.8286L67.9362 42.83C67.9377 42.8314 68.0346 42.977 68.0762 43.2895C68.1152 43.5857 68.1308 44.2262 68.1275 44.5189C67.9265 44.5761 67.5151 44.6794 67.1314 44.6864C66.9861 44.6907 66.8317 44.6836 66.7558 44.6794C66.7087 44.6751 66.6665 44.6744 66.6137 44.6638C66.285 44.603 66.0189 44.5337 65.8367 44.4814C65.7737 44.2679 65.7296 43.9455 65.8605 43.8862C65.9538 43.8473 66.0967 43.8748 66.2488 43.9031C66.5532 43.9611 66.968 44.041 67.2728 43.6048C67.4948 43.2895 67.2837 42.9466 67.0797 42.6144ZM73.3702 43.4323C73.4827 43.4676 73.6012 43.4825 73.7166 43.4825C73.8493 43.4825 73.9769 43.4634 74.0886 43.4387C74.1649 43.5171 74.6892 44.0905 74.9527 44.9041C74.734 44.8433 74.1855 44.4573 74.1855 44.4573C74.1523 44.434 73.4852 43.9964 72.7096 43.978C72.4023 43.9703 71.9868 44.1025 71.7554 44.1817C71.7551 44.1548 71.7598 44.123 71.7573 44.0997C71.737 43.9024 71.6966 43.708 71.6622 43.5667C71.6716 43.5667 71.6412 43.4606 71.6202 43.4041C71.6104 43.3694 71.6036 43.3461 71.6025 43.3425L71.5978 43.3439C71.5313 43.1389 71.514 42.9155 71.5693 42.7134C71.7273 42.1301 71.6651 41.0867 71.6123 40.5162C71.5801 40.1606 71.3231 39.2656 70.7745 38.9326C70.592 38.823 70.3815 38.7432 70.1624 38.6888C70.3866 38.5028 70.661 38.3579 71.2171 38.3862C71.4554 38.3996 71.7037 38.5559 71.9178 38.8231C72.2656 39.2593 72.4467 39.8863 72.3578 40.3487L72.3325 40.478C72.1839 41.2111 71.835 42.9297 73.3702 43.4323ZM75.3414 39.9464C76.425 39.7399 77.069 39.4876 77.5538 39.2317V49.1101C77.5162 49.0465 77.4822 48.9857 77.4421 48.9213L77.3868 48.8301C77.3499 48.7679 77.2758 48.6859 77.1536 48.5516C76.7067 48.0581 75.6592 46.9037 75.468 45.3994C75.3364 44.363 74.717 43.5641 74.4588 43.2722C75.054 42.4337 75.3667 41.4553 75.3667 40.4296C75.3667 40.2656 75.3577 40.1054 75.3414 39.9464ZM75.2807 39.5371C75.1697 38.9418 74.951 38.3862 74.6451 37.8836C75.9026 37.6369 76.8792 37.3519 77.5538 37.0331V38.7588C77.0762 39.0309 76.4547 39.3102 75.2807 39.5371ZM63.7292 57.0136C63.5484 56.6899 63.3434 56.3237 63.1656 55.7815C62.7718 54.5768 64.7831 53.5836 65.6411 53.158C65.7521 53.1042 65.8483 53.0562 65.9622 52.9954C66.6575 52.6285 67.5194 52.1719 68.5488 52.4002C68.6877 52.4306 68.875 52.4723 69.089 52.5034C68.9643 52.9007 68.619 53.9186 68.1696 54.5323C67.5653 55.358 66.6026 56.417 66.2631 56.634C65.8147 56.9182 65.1925 57.8535 64.9817 58.5576C64.8551 58.9797 64.5145 60.1171 64.0344 60.6042C64.081 60.1228 64.1313 59.6109 64.1927 59.068C64.3088 58.0458 64.0532 57.5898 63.7292 57.0136ZM63.5965 66.1616C63.9414 66.6175 64.4983 67.1859 64.7148 67.4009C64.3265 68.0541 64.0803 68.8663 63.8572 69.8978C63.6254 70.9723 63.6829 71.728 64.0329 72.2066C64.3879 72.693 64.9473 72.7587 65.2814 72.7998C65.6277 72.8415 66.0132 72.7778 66.4188 72.7029C66.5006 72.9482 66.6445 73.4275 66.6445 73.7569C66.6445 73.8672 66.651 73.9669 66.6568 74.0602C66.677 74.379 66.6896 74.5713 66.4188 74.8739L66.2753 75.0351C66.2287 75.0874 66.186 75.1354 66.1415 75.185H60.2994C60.226 75.2231 59.7881 75.1835 59.7343 75.1835C59.6931 75.1835 59.3579 75.1553 59.218 75.1645C59.2039 75.1708 59.1887 75.1779 59.1761 75.1814L59.1775 75.185H57.9329C57.9268 75.0845 57.9178 74.946 57.907 74.7841C58.701 74.7269 59.8406 74.4081 60.0528 74.3204C60.3902 74.1811 60.6046 73.9761 60.6913 73.7117C60.8519 73.2197 60.5182 72.6888 60.3189 72.3706C60.2734 72.2992 60.2365 72.2441 60.2235 72.2101L60.2119 72.213C60.2098 72.2088 60.2072 72.2038 60.2043 72.1988C60.0752 71.9634 59.9531 71.7393 59.888 71.5697C59.688 71.0501 59.6992 69.2644 59.9964 67.9982C60.1693 67.2644 60.4795 66.877 60.8085 66.4641C61.033 66.1857 61.2644 65.8958 61.4423 65.4992C61.7229 64.8778 61.6253 64.1341 61.4561 63.1521L61.4065 62.8694C61.2648 62.0621 61.1614 61.4809 61.3559 60.8567C61.3754 60.7952 61.4119 60.7281 61.4539 60.6496C61.6712 60.2403 62.0342 59.556 61.6357 57.9753C61.5038 57.4535 61.5775 57.0576 61.6553 56.6391C61.7432 56.1655 61.8339 55.6777 61.6148 55.0266C61.4542 54.5508 61.6639 53.523 61.857 53.103C62.25 53.7188 62.8134 54.2044 63.1163 54.4399C62.7841 54.8633 62.616 55.3504 62.7946 55.8975C62.9829 56.4765 63.1988 56.8583 63.3878 57.1962C63.7014 57.7547 63.9082 58.1244 63.8055 59.0257C63.7411 59.587 63.6898 60.1151 63.6417 60.6121C63.5589 61.4739 63.4869 62.2162 63.3727 62.8835C63.218 63.7849 63.0914 65.4907 63.5965 66.1616ZM74.8962 48.6808C74.5618 48.3442 73.8308 48.5287 73.4529 48.6928C73.1072 48.8426 72.4684 49.2258 72.5212 49.6125C72.5526 49.8344 72.7851 49.9087 72.9724 49.9681C73.0436 49.9893 73.1774 50.0324 73.198 50.0515C73.2353 50.2303 73.1752 50.4721 73.0704 50.5711C73.0201 50.6178 72.9272 50.7245 72.8253 50.8553C72.3722 50.5322 72.0949 50.0119 72.0949 49.4591C72.0949 48.5069 72.8874 47.7299 73.8636 47.7299C74.8391 47.7299 75.6324 48.5069 75.6324 49.4591C75.6324 49.8515 75.4921 50.2282 75.2437 50.5337C75.1324 50.5478 75.0283 50.5591 74.9715 50.5435C74.9285 50.5308 74.8551 50.5033 74.8341 50.4629C74.7936 50.3816 74.8771 50.1731 74.9505 49.9921C75.1027 49.616 75.3095 49.0985 74.8962 48.6808ZM72.7634 51.7432C72.7959 51.5135 73.1937 50.9839 73.3398 50.8461C73.5408 50.6588 73.6438 50.2834 73.5794 49.9765C73.5318 49.7433 73.2881 49.6669 73.0924 49.6047C73.027 49.5835 72.9167 49.551 72.9084 49.568C72.9189 49.4845 73.1937 49.2216 73.6094 49.0427C74.0217 48.8638 74.492 48.82 74.6164 48.9459C74.8391 49.17 74.7499 49.4506 74.5878 49.8522C74.4751 50.1321 74.3684 50.3979 74.4841 50.6298C74.5484 50.7605 74.6754 50.8546 74.8601 50.9083C75.0008 50.9486 75.1602 50.9281 75.3279 50.9083C75.7004 50.8588 76.1202 50.8051 76.5717 51.3339C76.6792 51.459 76.5822 51.8146 76.5041 52.0974C76.404 52.4614 76.3086 52.8072 76.4843 53.0327C76.5092 53.0638 76.5454 53.0991 76.5862 53.1352C76.4991 53.1819 76.3801 53.2412 76.2348 53.3069C75.9422 52.9606 75.9036 52.8276 75.6042 52.6926C75.5416 52.663 75.5373 52.5477 75.5395 52.4C75.5402 52.255 75.5424 52.055 75.3558 51.9913C75.1667 51.9263 74.8536 51.9821 74.4136 52.6007C74.2733 52.7993 73.9902 52.8128 73.7075 52.8177C73.7263 52.769 73.7498 52.7152 73.7675 52.6763C73.8604 52.4664 73.9475 52.2684 73.8022 52.137C73.659 52.0069 73.4616 52.1101 73.377 52.1533C73.1854 52.2508 72.9138 52.3243 72.6506 52.378C72.703 52.1533 72.7366 51.9299 72.7634 51.7432ZM73.3922 52.5647C73.3054 52.7619 73.2342 52.9464 73.3307 53.0871C73.3607 53.131 73.4294 53.2023 73.5629 53.2023H73.5704L73.6626 53.1988C74.0043 53.1945 74.4707 53.1882 74.7336 52.8177C74.9234 52.5505 75.0666 52.4304 75.149 52.3801V52.3957C75.1468 52.5859 75.1439 52.9033 75.4412 53.0376C75.5927 53.109 75.6979 53.2427 75.8949 53.4505C75.4184 53.6357 74.7936 53.8159 74.1551 53.8195C73.2764 53.8322 72.4604 53.6032 72.0092 53.4469C72.0689 53.4066 72.1274 53.3628 72.1824 53.3161C72.335 53.1853 72.4456 52.9981 72.5273 52.7895C72.8079 52.7407 73.1293 52.6693 73.3922 52.5647ZM74.304 54.1942C74.5069 54.1864 74.7072 54.1638 74.901 54.1305C75.1067 54.5985 75.7206 56.0725 75.7713 57.0919C75.8215 58.1163 75.7398 60.0356 75.4871 61.5753C75.4798 61.6206 75.4729 61.663 75.465 61.7082C73.2197 61.1901 72.0038 62.29 70.7162 63.4529C69.8279 64.2575 68.9103 65.0867 67.5736 65.4635C66.5203 65.7611 65.7954 66.1513 65.2642 66.6858C65.4342 66.2086 65.8319 65.4917 66.7604 64.9495C67.2539 64.6618 67.5674 64.1465 67.8697 63.6459C68.0721 63.3115 68.2822 62.9659 68.5425 62.6965C69.219 61.9974 69.5925 61.6397 70.1384 61.1717L70.3193 61.0175C70.8084 60.6019 71.2712 60.2081 71.9285 59.3294C72.5722 58.4669 73.4359 57.0149 73.9291 55.5254C74.1457 54.8693 74.2519 54.4543 74.304 54.1942ZM74.8297 67.1057C75.0651 68.1859 75.3858 70.5613 75.3901 70.5903C75.3916 70.5973 75.5005 71.288 75.1385 71.7581C74.9505 72.0035 74.6616 72.1477 74.2791 72.1943C73.9302 72.2339 73.6887 72.2035 73.4334 72.1682C73.1644 72.1328 72.8864 72.0953 72.4564 72.1632C72.0862 72.299 71.9673 72.5068 71.8519 72.7075C71.7731 72.8447 71.6971 72.9762 71.5251 73.1204C71.5074 73.1346 71.4867 73.1402 71.468 73.1515C71.5479 72.5626 71.7615 71.0123 71.8204 70.5294C72.0305 68.8314 71.7029 67.1213 70.8714 65.5873C70.547 64.9864 70.866 63.9832 70.939 63.7719C70.953 63.7598 70.9668 63.7464 70.9812 63.7336C72.2438 62.592 73.3398 61.6008 75.3941 62.0836C75.3587 62.2569 75.3208 62.4209 75.282 62.5715C74.9256 63.9507 74.5571 65.858 74.8297 67.1057ZM76.1285 72.6991L76.1411 75.2476H73.1944C73.134 75.1097 73.095 74.9789 73.0903 74.8396C73.0761 74.4296 73.6011 73.1558 73.8517 72.5902C73.9923 72.5958 74.1453 72.593 74.3253 72.5725C74.6931 72.5287 74.9961 72.4085 75.2332 72.212C75.4079 72.3845 75.7456 72.6581 76.1285 72.6991ZM67.0457 74.0366C67.04 73.9511 67.0346 73.8577 67.0346 73.7566C67.0346 73.3961 66.8968 72.914 66.806 72.6354C67.1047 72.5824 67.4109 72.535 67.7439 72.5209C68.0491 72.5132 68.326 72.5485 68.5816 72.6058C68.5332 72.6701 68.4812 72.7415 68.4204 72.8242C67.7732 73.7093 67.9569 74.5527 68.0718 74.7789C68.0892 74.8107 68.1123 74.8531 68.1413 74.9012C68.27 75.1246 68.4851 75.4971 68.4432 75.8365C68.4081 76.1256 67.7656 76.3567 67.429 76.4154C67.13 76.4692 66.7575 76.6261 66.2908 76.8968C65.9216 77.1118 65.3138 77.4744 64.9808 77.6745C64.9501 77.519 64.9118 77.3154 64.8836 77.1125C64.8406 76.8078 65.2021 76.3921 65.5655 76.1963C65.8468 76.0464 66.0731 75.8322 66.3176 75.5657H66.3407V75.541C66.4148 75.459 66.4904 75.3748 66.5699 75.2836L66.712 75.1246C67.0884 74.7039 67.0678 74.3795 67.0457 74.0366ZM68.4204 74.6085C68.3539 74.4756 68.198 73.7842 68.7368 73.0462C68.8503 72.8907 68.9298 72.7874 68.9851 72.716C69.342 72.8362 69.6399 72.9925 69.8786 73.1204L69.986 73.1755C70.3287 73.3586 70.7532 73.5842 71.1535 73.6039C71.2341 73.7715 71.3556 74.0733 71.4134 74.4728C71.4456 74.6926 71.4781 75.0086 71.4846 75.2525H68.7693C68.6948 75.0645 68.5473 74.8298 68.4804 74.7146C68.4562 74.6714 68.4345 74.6361 68.4204 74.6085ZM69.6345 66.7454C69.3637 65.907 69.6436 65.0064 69.7158 64.7999C69.9574 64.6211 70.188 64.4331 70.4104 64.2407C70.3211 64.696 70.2788 65.3047 70.5272 65.7664C71.3208 67.2304 71.6344 68.862 71.4347 70.4844C71.3707 71.0019 71.131 72.7417 71.0656 73.2125C70.7806 73.1666 70.4557 72.9927 70.1729 72.8428L70.0644 72.7841C69.8504 72.671 69.5883 72.5352 69.2831 72.4165C69.3793 72.2228 69.7072 71.5505 69.8048 71.1313C69.9382 70.5572 70.1541 68.3622 69.6345 66.7454ZM67.6814 65.8307C68.2638 65.6673 68.7639 65.4235 69.2188 65.14C69.1251 65.5747 69.0579 66.2216 69.2628 66.86C69.7636 68.4167 69.5337 70.5756 69.4252 71.0479C69.3395 71.412 69.0437 72.0255 68.9432 72.2277C68.9179 72.2363 68.8915 72.2497 68.863 72.2744C68.5661 72.1931 68.236 72.138 67.8712 72.138C67.8242 72.138 67.7768 72.138 67.7288 72.1408C67.2649 72.1592 66.8372 72.2376 66.4593 72.3084C66.0236 72.3897 65.6479 72.4561 65.3286 72.4207C64.9631 72.3776 64.586 72.3076 64.3503 71.9853C64.0704 71.6029 64.0335 70.9277 64.2389 69.9762C64.7538 67.591 65.3468 66.4881 67.6814 65.8307ZM53.9595 75.185H53.1743C53.171 75.1729 53.1388 75.0535 53.1207 74.9687L53.3058 74.3698C53.5372 74.4314 53.7798 74.478 54.0297 74.5063C53.9881 74.7707 53.961 74.9382 53.9595 74.946C53.9581 74.9566 53.9509 75.0549 53.9595 75.185ZM48.6019 69.6419L49.6714 69.0905L50.405 74.2694L49.802 74.8181L48.6019 69.6419ZM49.4487 75.2111H47.6369V67.4465L49.4487 75.2111ZM48.3781 59.2635C48.4124 59.3356 48.4298 59.397 48.4381 59.4557C48.389 59.6565 48.2805 59.824 48.1626 59.9966C48.0198 60.2079 47.8723 60.4235 47.8398 60.707C47.7772 61.245 47.959 61.7158 47.9641 61.7299L48.1666 62.299L48.4681 62.3853C48.5017 62.3598 48.5835 62.2948 48.6941 62.2078L48.8286 63.1523L47.6369 63.5743V56.4364L47.6474 56.4257C47.7761 56.5566 47.9272 56.6534 48.0592 56.7354C48.1691 56.804 48.2729 56.869 48.3369 56.9354C48.5159 57.1256 48.4631 57.3993 48.3611 57.8305C48.2588 58.2681 48.1409 58.7643 48.3781 59.2635ZM48.5086 60.8979L48.6327 61.7716C48.5679 61.8225 48.5032 61.8749 48.4418 61.9229L48.3271 61.6006C48.3253 61.5956 48.1713 61.1976 48.223 60.748C48.2454 60.5571 48.3557 60.3938 48.484 60.2065C48.6398 59.9774 48.8153 59.718 48.8485 59.361L48.8337 59.3602C49.1059 59.0584 49.5677 59.2125 49.7459 59.291C49.9881 59.4381 50.1121 59.8841 50.0778 60.3401C50.0836 60.35 50.0919 60.3542 50.0973 60.3642C50.1082 60.3854 50.1205 60.4016 50.1313 60.4214C49.8905 60.6971 49.4603 61.0859 49.017 61.457L48.9291 60.8406L48.5086 60.8979ZM50.3381 60.7628C50.3537 60.789 50.3714 60.8144 50.3859 60.8406C50.3768 61.0831 50.3551 61.3694 50.3316 61.6889C50.3088 61.9809 50.285 62.2997 50.2651 62.6433L49.2368 63.0073L49.0792 61.8989C49.487 61.5652 50.0019 61.1241 50.3381 60.7628ZM50.2441 63.0929C50.2069 64.0126 50.2152 65.0914 50.3732 66.3081C50.4878 67.1896 50.5941 67.741 50.6863 68.1171L50.0098 68.455L49.2961 63.4273L50.2441 63.0929ZM51.1043 73.4013L51.1795 73.7336L50.8006 74.0284L50.0716 68.8904L50.7988 68.527C50.823 68.6062 50.8457 68.6769 50.8668 68.7391C50.9434 68.9696 50.9814 69.0841 50.9814 69.3768C50.9814 69.8822 50.9665 70.1381 50.9438 70.5263C50.9319 70.7341 50.9177 70.9758 50.9025 71.3102C50.8577 72.319 51.0302 73.0769 51.1043 73.4013ZM52.7964 74.7134C52.7591 74.6986 52.7209 74.6858 52.6846 74.6795C52.2461 74.6053 51.9514 74.8428 51.9084 74.8598C51.8994 74.8703 51.8867 74.8782 51.8744 74.8859L51.595 73.6474C51.639 73.6792 51.6846 73.7103 51.7348 73.7386C51.9587 73.8622 52.3973 74.0814 52.9367 74.2603L52.7964 74.7134ZM51.2811 74.1839L51.5132 75.2111H49.965L51.2811 74.1839ZM52.4179 75.0768C52.4801 75.0633 52.5383 75.0584 52.5889 75.0584C52.6627 75.0584 52.7747 75.2111 52.7942 75.2655C52.9465 75.7017 52.9027 76.5119 52.813 76.654C52.723 76.7826 51.9702 77.064 51.6586 76.8986C51.2609 76.6915 51.2551 76.5098 51.301 76.3585C51.3982 76.046 51.9876 75.1729 52.4179 75.0768ZM54.0872 74.1344C53.1381 74.0284 52.2675 73.5993 51.9251 73.4098C51.634 73.2494 51.4749 72.9616 51.4283 72.8655C51.3621 72.4894 51.2985 71.962 51.327 71.3272C51.3415 70.9956 51.3556 70.7553 51.3675 70.5503C51.3895 70.1685 51.4058 69.8928 51.4058 69.3768C51.4058 69.019 51.3523 68.8579 51.2706 68.6111C51.1593 68.2739 50.9911 67.7635 50.7944 66.2549C50.5526 64.3914 50.669 62.8482 50.7543 61.7192C50.7662 61.5587 50.7775 61.411 50.7869 61.2682C50.793 61.2844 50.7998 61.295 50.8056 61.3113L50.8017 61.3134C50.8067 61.3219 50.8132 61.3353 50.8176 61.3445C50.8215 61.3551 50.8209 61.2603 50.8129 61.1303C51.0602 61.3692 51.3596 61.7107 51.5656 62.1257C51.745 62.4862 51.8306 62.7464 51.9062 62.9747C52.0096 63.29 52.0989 63.5621 52.3817 63.9248C52.7845 64.4452 53.8413 65.3409 54.1552 65.6024C54.0774 66.1411 54.0528 66.7166 54.1287 67.3018C54.187 67.7529 54.2437 68.1311 54.2951 68.4691C54.4538 69.5266 54.5496 70.1643 54.4415 71.3407C54.3555 72.2837 54.1986 73.3964 54.0872 74.1344ZM51.3856 57.1053C51.3144 56.7822 51.2854 56.5157 51.2449 56.2944C51.1133 55.5634 51.0648 55.2891 51.1571 54.6727C51.2655 53.9509 51.0099 53.5501 50.7633 53.1627C50.6979 53.0594 50.6317 52.9563 50.5721 52.8439C50.3212 52.3695 50.0568 51.7439 50.2445 51.1097C50.4032 50.5732 50.725 49.2335 50.2727 48.4128C49.9512 47.8267 49.4527 47.0767 48.9009 46.82C48.4606 46.6157 47.5017 46.5394 47.357 46.5274C47.4218 46.1937 47.5024 45.9236 47.5982 45.7992C47.6792 45.6826 47.7649 45.5751 47.8502 45.4676C48.1645 45.7603 49.594 46.8893 52.9772 46.9084H53.0477C53.2093 46.9084 53.3644 46.9034 53.5174 46.8978C53.6815 47.3594 54.0792 48.6171 54.0083 49.0751C53.9791 49.2639 53.923 49.358 53.8633 49.4577C53.7206 49.6952 53.6385 49.8981 53.7874 50.5117C53.8782 50.88 53.9653 51.1522 54.0388 51.3805C54.1472 51.7191 54.2191 51.9439 54.2191 52.245C54.2191 52.4367 54.1327 52.6608 54.0413 52.8997C53.8984 53.2744 53.7358 53.6971 53.8601 54.1263C53.9353 54.3871 54.0171 54.5907 54.0893 54.771C54.1967 55.0361 54.2893 55.2658 54.3428 55.6221C54.3877 55.9148 54.3475 56.0237 54.2919 56.17C54.2401 56.3078 54.1761 56.479 54.1761 56.7935C54.1761 57.2721 54.5963 57.8143 54.9347 58.2512C55.0377 58.3828 55.1364 58.5107 55.2012 58.6096C55.2261 58.6344 55.9431 60.225 56.0974 60.5558L56.0949 60.5587C56.0949 60.5587 56.1018 60.5693 56.1108 60.5855C56.1163 60.5975 56.1185 60.6004 56.1214 60.6067C55.9167 61.0691 55.4275 62.1564 55.1148 62.7325C54.9239 63.0839 54.4672 64.0085 54.2303 65.1679C53.8128 64.8123 53.0101 64.1104 52.689 63.6975C52.4468 63.3857 52.3741 63.1644 52.2736 62.8591C52.1984 62.6314 52.1044 62.3451 51.9128 61.9599C51.5675 61.2642 51.0009 60.7651 50.7387 60.5587C50.7207 60.488 50.7011 60.43 50.6762 60.4017C50.7268 60.3077 50.7767 60.213 50.823 60.1246C50.9047 59.9663 51.7283 58.6577 51.3856 57.1053ZM56.7407 41.8063C56.7819 42.1201 56.8213 42.4185 56.5516 42.6886C56.2652 42.9749 55.716 42.8412 55.4329 42.7578C55.5211 42.6638 55.5898 42.5861 55.6246 42.5472C55.7294 42.4171 56.6434 41.2633 56.3499 40.4673C56.2324 40.1457 55.9695 40.0941 55.7771 40.0566C55.6647 40.034 55.5576 40.0128 55.4666 39.9471C55.3975 39.8975 55.3696 39.8297 55.3262 39.7145C55.2663 39.5512 55.1838 39.3285 54.8794 39.2118C54.7752 39.1736 54.6794 39.1765 54.5757 39.1779C54.444 39.1807 54.2723 39.1836 53.9971 39.0931C53.4158 38.8986 52.8908 39.2966 52.6727 39.5617C52.5845 39.667 52.5628 39.7329 52.5415 39.8177C52.5238 39.8848 52.4981 39.988 52.326 40.2659C52.0889 40.6519 51.7465 40.8809 51.6235 40.9537C51.5816 40.9282 51.5403 40.9021 51.4984 40.8766C51.3245 40.7713 51.0016 40.5762 51.007 40.4822C51.0106 40.4179 51.0558 40.3811 51.2131 40.2899C51.3563 40.2065 51.5335 40.1033 51.6304 39.9004C51.6665 39.8262 51.698 39.7194 51.7327 39.5978C51.7949 39.3765 51.873 39.1001 52.0248 38.9715C52.1058 38.9043 52.4442 38.8824 52.6677 38.8689C52.945 38.8513 53.184 38.8372 53.3395 38.7608C53.4548 38.7043 53.5488 38.6307 53.6309 38.5671C53.7621 38.4625 53.8656 38.3819 54.0304 38.3748C54.2643 38.3585 54.3518 38.4794 54.4534 38.6264C54.5272 38.7311 54.6183 38.8633 54.7861 38.8817C54.9199 38.8972 55.0526 38.8435 55.1813 38.7905C55.3563 38.7191 55.4774 38.6767 55.575 38.7233C55.682 38.7756 55.7847 39.0244 55.8592 39.2069C55.9413 39.4048 56.0121 39.5773 56.1297 39.6728C56.181 39.7145 56.2136 39.7533 56.2461 39.7922C56.3357 39.899 56.4377 40.0192 56.7378 40.1344C56.8185 40.1641 56.8748 40.2277 56.9092 40.3274C56.9913 40.5621 56.9218 40.9042 56.8101 41.088C56.6756 41.3072 56.7092 41.561 56.7407 41.8063ZM52.6601 40.4631C52.8611 40.1372 52.8962 39.9993 52.92 39.9103C52.9323 39.86 52.9349 39.8495 52.9757 39.8014C52.9797 39.7958 53.3984 39.2945 53.8706 39.4536C54.2108 39.5688 54.4343 39.5617 54.5851 39.5589C54.6566 39.5582 54.7076 39.5568 54.7384 39.5688C54.8718 39.6183 54.9039 39.6925 54.9604 39.8431C55.0081 39.9732 55.0677 40.1351 55.2362 40.2559C55.3975 40.3697 55.5653 40.4023 55.7008 40.4299C55.8816 40.466 55.942 40.4808 55.9836 40.5946C56.1698 41.1036 55.5678 42.0056 55.3248 42.3039C54.999 42.6737 54.4328 43.2258 54.1942 43.2951C53.8601 43.3913 53.4794 43.2951 53.3181 43.1919C53.1891 43.1127 52.7516 42.7755 52.4703 42.5556C52.4739 42.5408 52.4804 42.5281 52.4837 42.5111C52.6008 41.8091 52.3556 41.5716 52.0451 41.2704C52.0451 41.2704 51.9735 41.2082 51.9587 41.1941C52.1503 41.0611 52.4403 40.8194 52.6601 40.4631ZM53.1081 43.5142C53.2935 43.6302 53.5893 43.7143 53.8973 43.7143C54.0333 43.7143 54.1725 43.6973 54.3048 43.6605C54.3775 43.6401 54.4592 43.5963 54.5446 43.5418L55.9094 44.2678C55.7084 44.3477 55.486 44.4707 55.3226 44.6637L55.2333 44.7712C54.9376 45.1275 54.6024 45.5305 54.076 45.5743C53.7936 45.594 53.6196 45.4739 53.3865 45.3169C53.1435 45.1508 52.8676 44.9621 52.4261 44.8942C52.0762 44.8412 51.8169 44.8327 51.6079 44.8263C51.3176 44.815 51.1416 44.81 50.9167 44.6983C50.5323 44.5096 50.1671 43.961 50.1653 43.961L50.0063 43.6146C50.0405 43.592 50.0796 43.5666 50.1104 43.5468C50.8483 43.1367 51.758 43.2781 52.3018 42.912C52.5642 43.1162 52.9692 43.4266 53.1081 43.5142ZM50.7413 45.0384C51.0425 45.1883 51.2862 45.1967 51.5942 45.2067C51.8032 45.2138 52.04 45.2208 52.3662 45.2717C52.7183 45.3261 52.9454 45.481 53.1645 45.628C53.402 45.7899 53.6475 45.9574 54.0094 45.9574C54.0413 45.9574 54.0745 45.9553 54.1081 45.9518C54.8002 45.8966 55.2077 45.406 55.5359 45.0108L55.6224 44.9069C55.8957 44.5845 56.4456 44.5188 56.4511 44.5174L56.501 44.5103L56.5103 44.5047C56.6337 44.745 56.9569 45.3409 57.2233 45.5538C57.0773 45.6591 55.7865 46.5258 53.047 46.5258H52.9797C49.6472 46.5103 48.2986 45.3615 48.1008 45.1734C48.6464 44.5654 49.231 44.1257 49.6772 43.826L49.8225 44.1413C49.8399 44.1689 50.2546 44.7995 50.7413 45.0384ZM61.2568 58.068C61.3158 58.2991 61.3515 58.5028 61.378 58.6936C61.1169 58.8195 60.3485 59.2755 60.0669 60.4405C59.8999 61.129 59.833 61.6076 59.7841 61.9547C59.7408 62.2665 59.7119 62.473 59.641 62.6532C59.4982 63.0102 58.0454 64.8107 57.2656 65.5672C57.225 65.4449 57.1925 65.3354 57.1715 65.242C57.1035 64.9402 57.3324 64.6177 57.5729 64.2764C57.8177 63.9306 58.0711 63.5722 58.0953 63.1523C58.1152 62.7995 58.0328 62.6418 57.9446 62.4736C57.8227 62.2438 57.6553 61.9258 57.6973 60.6603C57.7576 58.8096 58.0899 57.4466 58.1651 57.1575C58.5827 56.6958 59.492 55.9635 59.7039 55.7938C59.876 55.8786 60.0568 55.9316 60.2423 55.9316C60.2792 55.9316 60.3143 55.9295 60.3504 55.9252C60.6921 55.8864 61.0688 55.6029 61.3104 55.3894C61.4068 55.8306 61.3415 56.1932 61.2713 56.57C61.1892 57.0111 61.1057 57.4671 61.2568 58.068ZM61.0225 62.9345L61.0713 63.2152C61.2337 64.1597 61.3223 64.8199 61.0851 65.3474C60.9271 65.6987 60.7195 65.9567 60.5015 66.2296C60.1609 66.6565 59.807 67.097 59.6161 67.9128C59.3185 69.1768 59.2729 71.0544 59.522 71.7034C59.5969 71.8971 59.7249 72.1311 59.8605 72.3785C59.8663 72.3899 59.8724 72.4012 59.8789 72.4117H59.8959C59.9197 72.4563 59.9502 72.5058 59.9896 72.5694C60.1544 72.831 60.4303 73.27 60.3233 73.5973C60.2719 73.7536 60.1342 73.8773 59.902 73.9741C59.7094 74.0533 58.6177 74.3551 57.8799 74.4068C57.8162 73.5492 57.7034 72.3439 57.5483 71.7847C57.2908 70.8558 57.6159 69.408 57.8325 68.6268C58.0581 67.816 57.6802 66.747 57.4037 65.9666C58.1485 65.2915 59.8185 63.2569 60.0036 62.7918C60.0923 62.5691 60.1255 62.3337 60.1703 62.007C60.2177 61.6663 60.2828 61.1998 60.4462 60.5281C60.6508 59.6784 61.1444 59.274 61.4152 59.1093C61.4423 59.829 61.2445 60.2171 61.1078 60.4737C61.0533 60.5769 61.0085 60.6653 60.9828 60.7451C60.7622 61.4557 60.8772 62.1088 61.0225 62.9345ZM61.2015 54.965C61.0052 55.1566 60.5891 55.515 60.3059 55.5461C59.7285 55.609 59.0842 54.8138 58.8036 54.3853C59.1377 53.9944 59.8149 53.2246 60.0463 53.0485C60.1805 52.9467 60.3099 52.9107 60.4505 52.9432C60.8117 53.0245 61.1447 53.5271 61.2601 53.7435C61.1754 54.1619 61.1404 54.6214 61.2015 54.965ZM58.3947 54.4645C58.4099 54.4886 58.548 54.7176 58.7678 54.9863L58.1973 55.1283L56.7611 49.4509L57.8086 49.2007L58.9287 53.6536C58.676 53.9385 58.4612 54.1916 58.4139 54.2482L58.3271 54.3493L58.3947 54.4645ZM59.807 52.7474C59.6811 52.8428 59.4663 53.0633 59.2422 53.3059L58.1872 49.1116L59.589 48.7772L60.4986 52.5671C60.2596 52.5261 60.0224 52.5848 59.807 52.7474ZM56.2893 49.1724L57.9127 55.5927L59.0578 55.3086C59.1507 55.4019 59.2512 55.4917 59.3579 55.5737C59.1135 55.7695 58.0964 56.5952 57.7374 57.0632C57.3118 57.621 57.0649 58.2784 56.8992 58.9366C56.7742 59.4328 56.5167 59.9051 56.3266 60.2119C56.0358 59.5912 55.3742 58.1879 55.2455 58.0197C54.9584 57.6499 54.5664 57.1438 54.5664 56.7931C54.5664 56.5458 54.6106 56.427 54.6572 56.3025C54.7216 56.1329 54.7878 55.9554 54.7281 55.5652C54.6681 55.1672 54.5632 54.9063 54.4525 54.6306C54.3799 54.4511 54.3047 54.2652 54.2345 54.0219C54.1456 53.7137 54.2776 53.3673 54.4066 53.0337C54.5061 52.7728 54.6092 52.5035 54.6092 52.2447C54.6092 52.1027 54.5936 51.9761 54.5697 51.8524H54.5719C54.5719 51.8502 54.5719 51.6467 54.9403 51.0521C55.1265 50.7503 55.1613 50.488 55.1952 50.2356C55.2477 49.8319 55.308 49.3731 56.0149 48.5255C56.9539 47.3986 57.55 46.9689 57.7284 46.8529C58.0468 47.2884 58.7016 48.1205 59.0177 48.5198L56.2893 49.1724ZM55.7119 48.2851C54.9367 49.2162 54.8655 49.7549 54.8083 50.1868C54.7758 50.4293 54.7501 50.6223 54.6073 50.8549C54.5187 50.997 54.4533 51.1165 54.3972 51.2246C54.3289 51.0111 54.2497 50.7594 54.1673 50.4223C54.0419 49.9118 54.1047 49.8072 54.1994 49.6503C54.2682 49.535 54.3532 49.3937 54.3937 49.1307C54.4804 48.5679 54.0632 47.2898 53.9207 46.8756C55.9545 46.732 57.0486 46.1283 57.3747 45.9148C57.3794 45.9459 57.3841 45.9756 57.3885 46.0067C57.4127 46.175 57.4427 46.358 57.5215 46.5305C57.31 46.6642 56.6849 47.1187 55.7119 48.2851ZM54.3419 74.9958C54.3452 74.9746 54.6822 72.9428 54.826 71.3741C54.9378 70.154 54.8337 69.4611 54.6771 68.4148C54.6261 68.0784 54.5697 67.7009 54.5115 67.2541C54.2522 65.2492 55.2523 63.2825 55.4555 62.9093C55.8005 62.2737 56.3363 61.0726 56.5132 60.6711C56.5142 60.6717 56.5157 60.6717 56.5167 60.6717C56.5178 60.6647 56.5189 60.6597 56.52 60.6555C56.5485 60.5891 56.5681 60.5452 56.5724 60.5367L56.5702 60.5354C56.8581 60.1197 57.0663 59.571 57.2355 59.0338C57.3389 58.7037 57.4568 58.3721 57.6022 58.0582C57.4781 58.6676 57.3436 59.5541 57.3082 60.6477C57.2633 62.0114 57.4561 62.3797 57.5974 62.6476C57.6741 62.7933 57.72 62.8817 57.7059 63.1312C57.6875 63.4444 57.4666 63.7562 57.2529 64.0587C56.9741 64.4532 56.6866 64.8597 56.7905 65.3228C56.8367 65.5291 56.9286 65.7893 57.0348 66.089C57.2944 66.8236 57.6502 67.8281 57.4568 68.5265C57.1795 69.5262 56.9047 70.9188 57.1723 71.8831C57.361 72.5632 57.4879 74.3362 57.5342 75.0629C57.2944 74.9003 56.9857 74.7752 56.5879 74.824C56.2503 74.8614 56.0315 74.9512 55.8905 75.0502C55.7944 75.0827 55.7466 75.1449 55.722 75.2142C55.0752 75.825 54.9787 75.7896 54.6301 75.6553L54.5831 75.6384C54.2985 75.5302 54.3423 74.9958 54.3419 74.9958ZM56.6339 75.2015C57.152 75.1428 57.4781 75.4892 57.6958 75.719C57.7746 75.801 57.8368 75.8667 57.9012 75.907C57.9876 75.96 58.1148 76.013 58.2544 76.071C58.7085 76.2563 59.0494 76.423 58.9739 76.7341C58.9255 76.9321 58.147 76.9052 57.8516 76.8925C57.7482 76.8897 57.6539 76.8869 57.5754 76.8854C57.386 76.8854 57.1625 76.6182 56.9654 76.3842C56.8034 76.1905 56.6505 76.0067 56.4759 75.9042C56.3663 75.8391 56.2358 75.6638 56.0879 75.3811C56.1649 75.3181 56.3222 75.2382 56.6339 75.2015ZM68.6348 52.0278C67.4619 51.7691 66.4896 52.2844 65.738 52.6803C65.6653 52.7192 65.5731 52.7637 65.4657 52.8174C64.8966 53.0988 63.9884 53.5492 63.3741 54.1529C63.0711 53.9181 62.4452 53.3823 62.0858 52.7291C63.6402 51.786 65.8999 50.5878 66.3443 50.691C67.9297 51.0932 68.7093 50.7631 69.0849 50.6047C69.1551 50.5772 69.2209 50.5475 69.2553 50.5432C69.3851 50.5199 69.4798 50.5475 69.6902 50.609C69.841 50.6535 70.033 50.7087 70.307 50.7638C71.1253 50.9292 71.2674 51.1272 71.2905 51.207C71.3227 51.3195 71.2109 51.5025 70.973 51.7231C70.2608 52.3869 69.162 52.1451 68.6348 52.0278ZM66.4422 50.3213C65.7242 50.1304 62.8711 51.8059 61.9252 52.3785C61.8797 52.2491 61.8443 52.1176 61.8284 51.984C61.7803 51.581 62.093 50.8635 62.4362 50.5878C62.5034 50.5334 64.0794 49.2397 64.3315 46.6162C64.4038 45.8661 65.4321 45.0574 65.7192 44.8446C65.9118 44.8997 66.191 44.9725 66.5403 45.0376C66.6549 45.0588 66.7575 45.068 66.8552 45.0701C66.8552 45.068 66.8556 45.0638 66.8556 45.0602C66.9185 45.063 66.9879 45.0645 67.062 45.0645C67.0877 45.0645 67.1141 45.0645 67.1397 45.0638C67.4912 45.0574 67.8531 44.981 68.095 44.9188C68.0592 45.2009 67.9992 45.5919 67.9377 45.7644C67.9171 45.8223 67.8922 45.8873 67.8657 45.9566C67.7291 46.3129 67.634 46.5809 67.6575 46.7633C67.6604 46.7851 67.6622 46.8142 67.664 46.8446C67.6789 47.0806 67.7132 47.6314 68.3274 47.7536C68.5401 47.7975 68.8015 47.8258 69.0712 47.8258C69.4317 47.8258 69.8074 47.7749 70.101 47.6299C70.5609 47.4065 71.1466 46.8085 71.3462 46.0287C71.391 45.8548 71.4395 45.6781 71.4871 45.5042C71.5826 45.1571 71.7222 44.5937 71.7222 44.5937C71.8946 44.5272 72.3213 44.3533 72.7096 44.3547C73.1175 44.3554 73.5249 44.5229 73.8345 44.6883C74.2954 45.0256 74.7083 45.2893 75.0514 45.3006C75.0605 45.3508 75.075 45.3968 75.0818 45.4469C75.0883 45.5021 75.1039 45.553 75.1133 45.606C74.9329 45.5657 74.6859 45.5395 74.35 45.577C73.581 45.6625 72.501 46.2232 72.1839 46.7173C71.5819 47.6547 70.2141 47.9855 70.2141 47.9855C69.8529 48.0944 68.3065 48.6268 68.1756 48.7094C67.788 48.9548 66.878 50.0123 66.5891 50.3538C66.5384 50.3418 66.495 50.3354 66.4422 50.3213ZM68.4634 43.2809C68.7729 43.2675 68.9819 43.1218 69.1566 42.9974C69.3041 42.8935 69.432 42.8023 69.6121 42.7811C69.8095 42.757 69.9892 42.8645 70.2149 42.9995C70.4668 43.1508 70.7771 43.3325 71.19 43.343C71.2081 43.4173 71.2305 43.4894 71.2586 43.5594H71.2634C71.297 43.6881 71.3498 43.9122 71.3729 44.1356C71.3975 44.3759 71.254 44.8991 71.1144 45.406C71.066 45.5827 71.0172 45.7615 70.9719 45.9369C70.8092 46.5717 70.324 47.0997 69.9285 47.2927C69.5893 47.4596 68.9624 47.4964 68.4048 47.3853C68.104 47.3245 68.0672 47.1047 68.0495 46.8212C68.0469 46.7809 68.0444 46.7455 68.0407 46.7173C68.027 46.6105 68.1521 46.2839 68.227 46.0881C68.2544 46.016 68.2805 45.9482 68.3022 45.8874C68.4124 45.5784 68.4989 44.8121 68.509 44.6721C68.5223 44.4933 68.5108 43.6845 68.4634 43.2809ZM70.5692 39.257C70.8244 39.4104 71.0092 39.7681 71.118 40.0905C70.5453 39.9979 69.9549 40.1937 69.8265 40.2552L69.9972 40.5973C70.0879 40.5542 70.6928 40.3506 71.1932 40.4948C71.1932 40.4948 71.2221 40.5189 71.225 40.5493C71.2645 40.9875 71.3408 42.0677 71.1929 42.6128C71.1618 42.7259 71.1509 42.8433 71.1499 42.9592C70.866 42.9387 70.6451 42.8157 70.4166 42.6786C70.1617 42.5252 69.8984 42.3675 69.5658 42.4064C69.2867 42.4396 69.0965 42.5739 68.9298 42.6934C68.7509 42.8192 68.6081 42.9097 68.3802 42.8984C68.3698 42.8666 68.3589 42.8291 68.3488 42.8023C68.3481 42.8001 68.3474 42.798 68.3462 42.7952C68.3434 42.7881 68.3405 42.7803 68.3372 42.774C68.3289 42.7499 68.321 42.7252 68.3116 42.7075C68.2302 42.557 68.0538 42.1116 68.0267 41.7065C68.0115 41.4951 68.0574 40.9105 68.0997 40.4984L68.1022 40.5019C68.1029 40.5005 68.2114 40.4376 68.4927 40.4376C68.723 40.4376 68.9732 40.4291 69.0788 40.5683C69.1099 40.6086 69.1696 40.755 69.1414 40.8928C69.0369 41.4096 68.8868 41.9306 68.8148 42.0621C68.8148 42.0621 69.154 42.0727 69.2321 42.0762C69.2628 41.9688 69.5116 41.0123 69.5149 41.0038C69.5998 40.7274 69.5398 40.4772 69.4537 40.3648C69.2487 40.0947 68.7964 40.0558 68.4927 40.0558C68.351 40.0558 68.24 40.0693 68.1507 40.0876C68.1511 40.0855 68.1514 40.0813 68.1525 40.0777C68.2067 39.8204 68.3007 39.5179 68.7223 39.1905C69.107 38.8929 70.0203 38.9254 70.5692 39.257ZM65.6993 43.5396C65.2759 43.7284 65.3775 44.2932 65.4545 44.5625C65.0944 44.8312 64.0278 45.6965 63.9439 46.5787C63.7541 48.5539 62.7124 49.8717 62.1881 50.293C61.7412 50.6521 61.3775 51.4948 61.4411 52.0271C61.4712 52.2823 61.5518 52.5269 61.6635 52.7588L61.6266 52.7312C61.5467 52.8323 61.4657 53.0126 61.3934 53.2296C61.2803 53.0748 61.1298 52.9016 60.9483 52.7687L59.8785 48.315L59.4326 48.421C59.1503 48.0647 58.1112 46.7477 57.9127 46.4437C57.8266 46.3115 57.8005 46.1291 57.7749 45.9538C57.7377 45.6965 57.6993 45.43 57.4777 45.2667C57.2969 45.1338 56.9827 44.5852 56.8204 44.2586C57.8989 43.3777 58.5613 42.096 58.6452 40.7253C59.9048 40.4948 61.0221 40.1781 61.901 39.8084C62.899 40.2304 63.9667 40.5415 65.1529 40.7515C65.1992 41.8253 65.4701 42.7895 65.9231 43.4894C65.8471 43.4951 65.7723 43.5071 65.6993 43.5396ZM65.1454 40.3633C63.9721 40.1491 62.9142 39.8395 61.9311 39.4097L61.9292 39.4047C61.9177 39.4062 61.9065 39.4075 61.8935 39.4075C61.8822 39.4075 61.8725 39.4062 61.8627 39.4047L61.8613 39.4097C61.0113 39.7815 59.91 40.1004 58.6585 40.3351C58.647 39.7115 58.5176 39.1163 58.2927 38.5698C59.787 38.3528 61.0438 37.9908 61.9029 37.537C62.7619 37.9908 64.0187 38.3528 65.5127 38.5698C65.2842 39.1248 65.1544 39.7292 65.1454 40.3633ZM62.6213 34.4413C62.622 34.4533 62.6198 34.4632 62.6206 34.4752C62.6538 34.9199 62.9901 35.2415 63.5017 35.2415H63.5122C63.7891 35.2394 64.0448 35.1285 64.2335 34.9284C64.4284 34.7234 64.5282 34.4434 64.5086 34.162C64.4675 33.6206 64.056 33.1964 63.5006 33.072H63.5097C63.5097 32.3495 62.9539 31.762 62.272 31.762V32.1431C62.7276 32.1431 63.0975 32.5389 63.1159 33.0345C62.5764 33.0508 62.1404 33.3222 61.9033 33.74C61.6667 33.3194 61.2304 33.0486 60.6898 33.0317C60.7086 32.5368 61.0774 32.1409 61.533 32.1409V31.7592C60.8511 31.7592 60.2964 32.3474 60.2964 33.0698H60.3102C59.7545 33.1943 59.3383 33.617 59.2978 34.1599C59.2772 34.4392 59.3763 34.7192 59.5712 34.9248C59.7595 35.1242 60.0158 35.2359 60.2939 35.2394H60.3048C60.8142 35.2394 61.1628 34.9171 61.1957 34.4717C61.1968 34.4618 61.1964 34.4519 61.1964 34.4413H60.8066L60.807 34.4449C60.7868 34.7192 60.538 34.8542 60.2968 34.857C60.128 34.8563 59.9722 34.7877 59.8572 34.6668C59.7356 34.5382 59.6734 34.3635 59.6865 34.1868C59.7201 33.7351 60.1203 33.4092 60.6399 33.4092H60.6497C61.273 33.4141 61.7076 33.8573 61.7076 34.4858V35.6827H58.0161C58.289 33.6191 61.1472 29.2361 61.8793 28.1425C62.6163 29.2601 65.5445 33.7923 65.8294 35.6827H62.0978V34.4879C62.0978 33.8602 62.5327 33.4184 63.1553 33.4127H63.1655C63.6777 33.4127 64.0863 33.7457 64.1192 34.1903C64.1326 34.3657 64.0697 34.541 63.9475 34.6689C63.8329 34.7913 63.6767 34.8591 63.5082 34.8605H63.502C63.2435 34.8605 63.0295 34.7198 63.01 34.4491V34.4434L62.6213 34.4413ZM61.9029 36.0651C62.1621 36.0651 62.3722 36.2701 62.3722 36.5239C62.3722 36.7764 62.1621 36.9814 61.9029 36.9827C61.644 36.9814 61.4332 36.7764 61.4332 36.5239C61.4332 36.2701 61.644 36.0651 61.9029 36.0651ZM61.1845 36.0651C61.1559 36.1075 61.1306 36.15 61.1107 36.1974C61.0666 36.2977 61.0424 36.4087 61.0424 36.5239C61.0424 36.6392 61.0666 36.7494 61.1107 36.8498C61.1457 36.9304 61.196 37.0032 61.2546 37.0704C61.2546 37.0704 61.4393 37.25 61.5594 37.2938C60.7307 37.6883 59.5115 38.017 58.1253 38.21C57.6639 37.3058 56.9346 36.5564 56.0351 36.0651H61.1845ZM56.5069 27.9125H55.504V28.2943H56.5069V31.0131C55.748 30.1429 54.9153 29.5434 54.4464 29.291V27.7556H54.0411V29.2713C53.7124 29.5067 52.6761 30.2779 52.089 31.0732V25.1357L56.5069 27.1087V27.9125ZM54.2294 29.5809C54.5776 29.8248 56.4693 31.2089 56.5069 31.8926V35.6825H55.1435C54.642 35.5206 54.1076 35.4315 53.5515 35.4315C53.0427 35.4315 52.5525 35.5065 52.089 35.6422V32.0333C52.1859 31.2613 53.6046 30.0305 54.2294 29.5809ZM53.5515 35.8125C56.1548 35.8125 58.2735 37.8832 58.2735 40.4289C58.2735 41.8661 57.5771 43.2283 56.4089 44.0993L54.8845 43.2885C54.9844 43.2022 55.1601 43.0728 55.1601 43.0728C55.1753 43.0764 55.1988 43.0848 55.2306 43.094C55.5351 43.1888 56.346 43.4397 56.8302 42.954C57.2325 42.5504 57.1722 42.0909 57.1274 41.7572C57.1021 41.56 57.0796 41.3903 57.1447 41.2822C57.3064 41.0177 57.4039 40.5617 57.2778 40.2027C57.2065 39.9977 57.0691 39.8513 56.8801 39.7792C56.674 39.7 56.6208 39.6357 56.5467 39.5487C56.5 39.4922 56.4516 39.4363 56.3782 39.3784C56.3374 39.3444 56.2672 39.1754 56.2209 39.0624C56.1121 38.7979 55.9888 38.4989 55.7498 38.3802C55.4873 38.2529 55.2244 38.3582 55.0328 38.4374C54.9648 38.465 54.8636 38.5067 54.8535 38.5095C54.8365 38.4968 54.8018 38.4473 54.7761 38.4106C54.6633 38.248 54.4699 37.9588 54.014 37.9935C53.7214 38.0062 53.5443 38.1448 53.3881 38.2677C53.314 38.3265 53.2434 38.3802 53.1654 38.419C53.0807 38.46 52.8381 38.4756 52.6433 38.4869C52.2871 38.5095 51.9512 38.5307 51.7708 38.6827C51.5285 38.8856 51.4338 39.2242 51.3568 39.4957C51.3293 39.5918 51.3065 39.6781 51.2783 39.7375C51.2317 39.8343 51.1301 39.893 51.014 39.9615C50.8528 40.0556 50.6323 40.1843 50.6181 40.4614C50.6004 40.7802 50.9522 40.9937 51.2932 41.1994C51.4588 41.2991 51.7708 41.5394 51.7708 41.5394C52.0539 41.8152 52.1837 41.9403 52.0991 42.4493C52.0463 42.7653 51.8232 42.8006 51.4877 42.8183C51.3948 42.8233 50.3752 42.9293 49.9192 43.2177C49.8932 43.2333 49.8603 43.2545 49.8325 43.2714C49.1773 42.4535 48.8295 41.4702 48.8295 40.4289C48.8295 37.8832 50.9482 35.8125 53.5515 35.8125ZM51.6674 35.6825H50.9895V24.9144L51.2617 24.7681L51.6674 24.9497V35.6825ZM49.1632 37.8775C48.8642 38.3667 48.6465 38.9083 48.5326 39.4893C47.2523 39.2405 46.6409 38.9655 46.2574 38.747V37.0214C46.9284 37.3417 47.9035 37.6287 49.1632 37.8775ZM47.1565 54.8856C47.1518 54.7053 47.2498 54.2784 47.3359 53.9023C47.4309 53.488 47.5206 53.0977 47.5275 52.8595C47.5304 52.7414 47.5474 52.6086 47.5665 52.4608C47.6218 52.0232 47.6895 51.4803 47.5123 50.8864C47.3865 50.463 47.1432 49.3149 47.158 48.5769C47.1681 48.0368 47.3116 46.9071 47.3116 46.9071C47.5947 46.9255 48.401 47.0082 48.734 47.1623C49.0841 47.3263 49.5204 47.8466 49.9294 48.5903C50.3245 49.3092 49.9832 50.6179 49.8697 51.0038C49.6423 51.7736 49.9637 52.5223 50.2265 53.0164C50.2902 53.1402 50.3615 53.2519 50.432 53.3636C50.6615 53.7227 50.8597 54.0323 50.7721 54.6148C50.6699 55.2935 50.7259 55.606 50.8614 56.3581C50.9016 56.5802 50.9482 56.8403 51.001 57.1627C51.2187 58.5144 50.7892 59.3457 50.4753 59.9523C50.4702 59.9622 50.4645 59.9735 50.4594 59.9834C50.4174 59.5486 50.2519 59.1478 49.9297 58.9541C49.4449 58.7349 48.9962 58.749 48.6824 58.9724C48.5739 58.6289 48.6584 58.2662 48.7413 57.9148C48.8443 57.4758 48.9514 57.0213 48.623 56.6763C48.5254 56.5738 48.4007 56.4953 48.2695 56.4133C48.1393 56.3306 47.4494 55.9128 47.3261 55.5523C47.2339 55.3515 47.1634 55.1217 47.1565 54.8856ZM48.8884 63.5711L49.6097 68.654L48.4853 69.2145L47.2994 64.1331L48.8884 63.5711ZM64.7229 78.2605C64.9683 78.421 65.5114 78.7879 65.7601 79.0473C65.9377 79.2319 65.9214 79.4001 65.7012 79.6483C65.6112 79.7479 65.1141 80.1544 64.7471 80.4478C64.5348 80.2442 64.0984 79.83 63.8366 79.5741C63.7705 79.5097 63.5955 79.3379 63.8768 79.034C63.9354 78.9696 64.3876 78.5596 64.7229 78.2605ZM65.9952 79.8978C66.4395 79.3994 66.2678 79.0184 66.0439 78.7851C65.8665 78.602 65.5703 78.3786 65.3126 78.1969H68.3243L67.9198 78.5758C67.8955 78.6006 67.6772 78.8346 67.701 79.123C67.71 79.2319 67.7589 79.3945 67.9429 79.5309C68.3139 79.813 68.4336 79.907 68.4361 79.9084L68.6827 79.6136C68.6827 79.6136 68.5637 79.5175 68.1812 79.2298C68.1046 79.1725 68.0926 79.1244 68.0894 79.0933C68.0806 78.9915 68.1722 78.8699 68.1964 78.8431L68.8363 78.2457C69.0106 78.3489 69.3411 78.5575 69.6155 78.802C69.6495 78.8346 69.7555 78.9293 69.6072 79.2248C69.5114 79.4114 69.3678 79.567 69.3657 79.5691L68.1605 80.8444C67.4812 80.6203 66.8871 80.4506 65.724 80.4803C65.6007 80.4831 65.4572 80.4874 65.2992 80.4973C65.5801 80.2689 65.9048 79.9996 65.9952 79.8978ZM65.4904 77.8152C65.8158 77.6207 66.2171 77.3825 66.4887 77.2248C66.9103 76.981 67.2495 76.8347 67.4989 76.7887C67.5496 76.7795 68.746 76.5632 68.8299 75.881C68.8428 75.7736 68.8374 75.6682 68.8226 75.565H71.4725C71.4725 75.6279 71.4736 75.6936 71.4736 75.7523C71.4743 76.0139 71.475 76.2401 71.4902 76.3914C71.5014 76.4988 71.4949 76.6551 71.4869 76.8205C71.4703 77.2015 71.454 77.5939 71.6189 77.8152H65.4904ZM73.9519 77.4405C74.0782 77.2086 74.0788 76.947 73.9545 76.6614C73.7925 76.2882 73.62 76.0012 73.4682 75.7474C73.4244 75.6739 73.3846 75.606 73.3463 75.5402H76.1423L76.1466 76.3051H75.2391V77.8152H73.5705C73.7195 77.724 73.863 77.6031 73.9519 77.4405ZM75.8498 53.8759C76.4113 53.6759 76.8206 53.4462 76.9291 53.3832C77.3275 53.6363 77.8659 53.9071 78.1526 54.0456C78.1403 54.0824 78.1269 54.1248 78.1142 54.1594C78.0214 54.426 77.9541 54.6203 77.9541 54.7759C77.9573 55.7769 78.4671 56.4633 78.8764 57.0154C79.1179 57.3421 79.3277 57.6227 79.3277 57.851C79.3277 58.001 79.2734 58.1268 79.1635 58.2307C78.8829 58.4965 78.3041 58.5757 77.9498 58.5891V58.5128C77.9006 57.5181 77.5954 55.9543 75.8498 53.8759ZM79.3277 58.5849V59.9174H77.9498V58.9708C78.2776 58.9581 78.9155 58.8882 79.3277 58.5849ZM77.9498 67.1284C78.0369 67.2563 78.1392 67.3807 78.2589 67.4967C78.6638 67.889 79.1787 68.0976 79.7471 68.0976H79.7673C81.2906 68.0842 81.6279 66.8081 81.6348 66.4667C81.638 66.2793 81.6192 66.0517 81.5491 65.8248C81.5491 65.8248 81.4168 65.5173 81.415 65.5158C81.0122 64.8428 81.1503 63.5307 81.6608 63.1766C81.8774 63.026 82.1319 62.9638 82.3438 63.0147C82.5119 63.0543 82.6414 63.1603 82.7296 63.33C82.8163 63.4954 82.8128 63.682 82.7213 63.8262C82.6352 63.9634 82.4819 64.0616 82.3062 64.037L82.3015 64.4187H82.3127C82.6212 64.4187 82.8966 64.273 83.0529 64.0263C83.2173 63.7669 83.2264 63.4424 83.0771 63.1575C82.9375 62.8875 82.7159 62.7107 82.4364 62.6442C82.1127 62.5644 81.7476 62.6471 81.4348 62.8655C80.8864 63.2466 80.6972 64.2059 80.8318 64.9941C80.6105 64.8923 80.3538 64.8343 80.0518 64.8343C79.6078 64.8343 79.2383 65.0295 79.0395 65.3688C78.8569 65.6799 78.8514 66.0701 79.0261 66.3613C79.1921 66.6371 79.4835 66.7877 79.8494 66.7877H79.8642L79.8592 66.4059C79.614 66.4087 79.4578 66.3253 79.3627 66.1684C79.2579 65.9937 79.2633 65.7534 79.3776 65.5582C79.4524 65.4303 79.6404 65.2154 80.0518 65.2154C80.4362 65.2154 80.7323 65.3151 80.9297 65.5123C81.2143 65.7944 81.249 66.2271 81.245 66.4589C81.245 66.4716 81.1344 67.7045 79.7641 67.7151C79.7583 67.7151 79.7525 67.7166 79.7471 67.7166C79.1617 67.7151 78.7636 67.45 78.5326 67.2266C78.1338 66.8393 77.9498 66.4363 77.9498 65.9061V65.489L81.3626 61.8355H83.6726V61.4545H81.1915L77.9498 64.9235V60.3001H83.6726V59.9176H82.6041L82.5995 55.3458L87.0796 55.3387C86.2451 55.9517 84.5129 57.2475 84.3476 57.3945C84.0887 57.6229 83.8356 57.9035 83.8306 58.5836C83.8277 58.9003 83.9524 59.1916 84.1899 59.4249C84.4543 59.6843 84.8459 59.8533 85.1875 59.8533C85.6109 59.8533 86.3326 59.5776 86.3575 58.8353C86.368 58.5348 86.2371 58.2796 86.0647 58.1114C85.9153 57.9664 85.7135 57.8979 85.4673 57.905C84.9962 57.924 84.7941 58.3425 84.7992 58.6203L85.1897 58.6126C85.1889 58.5603 85.2392 58.2966 85.484 58.2846C85.6113 58.2846 85.7183 58.3114 85.7903 58.3814C85.8828 58.4719 85.9743 58.6317 85.9685 58.8211C85.9497 59.3556 85.3874 59.4715 85.1875 59.4715C84.9882 59.4715 84.6882 59.3746 84.4669 59.1576C84.3534 59.0445 84.2178 58.8551 84.2203 58.5871C84.2243 58.0159 84.4286 57.8371 84.609 57.6773C84.7967 57.5098 87.7767 55.3444 87.7767 55.3444H87.9495C86.9765 61.9027 83.3949 67.9353 77.9501 72.0058L77.9498 67.1284ZM79.5208 45.9665C79.2854 45.3097 78.8735 44.5611 78.3381 43.8202C78.6797 42.834 79.1577 42.0252 79.6361 41.2526C80.0931 41.9206 80.5298 42.7018 80.9069 43.5812C80.2728 44.3497 79.7829 45.2093 79.5208 45.9665ZM81.0878 44.0336C81.7255 45.6653 82.1883 47.5882 82.1717 49.6927L82.1818 59.9179H79.7174V47.0859C79.7174 46.3076 80.3043 45.0418 81.0878 44.0336ZM82.5933 49.9536H84.8693V54.9644H82.5987L82.5933 49.9536ZM79.3461 40.8469C78.8612 41.6259 78.3276 42.5103 77.9447 43.5686V39.3524C78.3963 39.7137 78.8764 40.2198 79.3461 40.8469ZM79.324 47.0835H79.3277V56.9771C79.2832 56.917 79.2383 56.8555 79.1913 56.7925C78.8153 56.285 78.3467 55.653 78.3446 54.7757C78.3438 54.6831 78.4093 54.4978 78.4834 54.2815C78.6342 53.8517 78.862 53.1957 78.8681 52.406C78.8731 51.8002 78.5597 50.9186 77.9447 49.7904V43.9927C78.7444 45.0814 79.324 46.3158 79.324 47.0835ZM78.4787 52.4025C78.4748 52.8938 78.3782 53.3173 78.2701 53.6778C77.705 53.4007 76.9381 52.9864 76.7945 52.8012C76.7356 52.7241 76.822 52.4068 76.8806 52.196C76.9927 51.7875 77.1091 51.3654 76.8708 51.0883C76.4778 50.6295 76.0794 50.5128 75.7381 50.4994C75.9217 50.1848 76.023 49.8264 76.023 49.4588C76.023 48.2952 75.054 47.3472 73.8637 47.3472C72.6735 47.3472 71.7045 48.2952 71.7045 49.4588C71.7045 50.1375 72.048 50.7758 72.6066 51.1696C72.4934 51.3506 72.3994 51.5386 72.3777 51.6892C72.3184 52.0957 72.2197 52.7786 71.9257 53.0303C71.814 53.1264 71.6849 53.2042 71.5591 53.2833C71.5063 53.3158 71.3729 53.3667 71.3418 53.4191C71.31 53.4721 71.3502 53.5138 71.3798 53.5379C71.3888 53.5456 71.3917 53.5477 71.3917 53.5477C71.4167 53.5689 71.4633 53.6071 71.5396 53.6432C71.9887 53.8871 73.013 54.1557 73.9064 54.1939C73.8543 54.4336 73.7545 54.8125 73.5582 55.4084C73.0791 56.8555 72.2395 58.2658 71.6133 59.1035C70.9824 59.9483 70.5359 60.3287 70.063 60.7302L69.8811 60.8843C69.3246 61.3629 68.9461 61.7249 68.2584 62.4347C67.9695 62.7337 67.7482 63.0999 67.5339 63.4526C67.2446 63.932 66.9695 64.3837 66.5601 64.6227C65.2571 65.3833 64.8915 66.4494 64.7899 66.9287C64.5307 66.6608 64.1568 66.2613 63.9106 65.9347C63.5545 65.4632 63.5639 64.0734 63.7573 62.9451C63.8521 62.3915 63.9179 61.7878 63.984 61.1141C64.6467 60.7797 65.0633 59.6437 65.3551 58.6638C65.5543 58 66.1371 57.1672 66.4756 56.9524C66.8968 56.6851 67.903 55.5505 68.4866 54.7537C69.0058 54.0461 69.3782 52.8938 69.4844 52.5411C70.0553 52.5722 70.7247 52.4817 71.2424 51.9981C71.6043 51.6617 71.7425 51.3675 71.6643 51.1017C71.5685 50.7737 71.1628 50.5475 70.3855 50.3913C70.1841 50.3502 70.0305 50.31 69.9042 50.2732C69.9939 50.2379 70.0879 50.2011 70.1909 50.1622C70.5945 49.9883 70.7637 49.965 71.0088 49.9763L71.0269 49.5945C70.6848 49.579 70.4567 49.6313 70.0424 49.8108C69.5521 49.9933 69.1945 50.158 69.146 50.1784C69.081 50.1955 69.0141 50.2209 68.932 50.2548C68.6222 50.3856 68.0809 50.6076 67.0226 50.4401C67.434 49.9629 68.1163 49.2029 68.3879 49.0304C68.6832 48.8423 69.7289 48.5313 70.353 48.3433C70.5796 48.2754 70.7724 48.2181 70.8942 48.1779C71.4134 48.0067 72.1998 47.3973 72.5115 46.9237C72.7476 46.566 73.7032 46.0323 74.3945 45.9559C74.8515 45.9043 75.101 45.9891 75.1975 46.0351C75.5533 47.3606 76.45 48.3489 76.8618 48.8035C76.942 48.8918 77.0317 48.9908 77.0487 49.0205L77.1077 49.1152C78.248 50.9787 78.4823 51.9324 78.4787 52.4025ZM77.5538 35.6825H73.2444V32.0438C73.2444 31.3114 74.7373 30.0828 75.4347 29.5809C75.7619 29.8099 76.7747 30.415 77.5538 31.146V35.6825ZM77.5538 27.9128H76.6478V28.2946H77.5538V30.6543C76.8025 29.9876 75.9539 29.502 75.6531 29.292V27.7558H75.2475V29.2716C74.9079 29.5133 73.8113 30.3306 73.2361 31.1499V25.1388L77.5538 27.4391V27.9128ZM77.5538 36.0654V36.5327C76.9009 36.8848 75.8021 37.2113 74.3732 37.4822C73.9386 36.9032 73.3828 36.4161 72.7378 36.0654H77.5538ZM72.8152 35.683H72.1383V24.9503L72.5433 24.7687L72.8152 24.9143V35.683ZM74.9766 40.4294C74.9766 41.3646 74.691 42.2582 74.1552 43.0266C73.9776 43.0825 73.7039 43.1383 73.4938 43.0698C72.2844 42.6732 72.5751 41.2402 72.7147 40.5517L72.7411 40.4174C72.8503 39.8475 72.6424 39.1123 72.2244 38.5885C71.9413 38.2329 71.5927 38.0272 71.2409 38.0067C70.3725 37.9536 70.0174 38.2874 69.7318 38.5553L69.6964 38.5878C69.4585 38.3015 68.9443 37.772 67.9095 38.1905C66.9373 38.5821 66.8353 40.0123 66.8769 40.4824C66.8928 40.6718 66.8082 40.8055 66.6899 40.9872C66.5595 41.1907 66.3967 41.4431 66.3826 41.827C66.3675 42.1932 66.5685 42.5212 66.7453 42.8103C66.9188 43.091 67.0255 43.2832 66.9513 43.3907C66.8201 43.5766 66.678 43.5887 66.4455 43.5505C65.8653 42.8435 65.5319 41.7103 65.5319 40.4294C65.5319 37.8837 67.6506 35.8131 70.2539 35.8131C72.8578 35.8131 74.9766 37.8837 74.9766 40.4294ZM71.7171 31.0041C71.1227 30.2357 70.136 29.4991 69.8164 29.2715V27.7558H69.4103V29.292C69.081 29.5203 68.0946 30.228 67.2985 30.9653V28.2945H68.3014V27.9127H67.2985V27.1019L71.7171 25.1359V31.0041ZM61.6814 21.3407H61.0128V21.7225H61.6814V22.5503H57.2533C57.9547 21.3047 59.7054 20.4443 61.6814 20.3835V21.3407ZM29.9711 51.5095C29.9711 34.8857 43.2768 21.2503 60.0242 20.2317C58.5327 20.6163 57.3446 21.4511 56.8207 22.5505H56.0184V23.9516H56.5069V26.6903L51.4403 24.4288V22.2033H51.1239V24.4076L46.2345 27.0218V25.4383H45.8448L45.8556 27.9126H44.8975V28.2944H45.8556V31.2918C39.3623 36.2403 35.6378 43.6857 35.6378 51.724C35.6378 59.7651 39.3607 67.209 45.8556 72.1562V76.3059L44.6234 76.3045L44.6307 77.816C35.8175 72.2227 29.9711 62.5237 29.9711 51.5095ZM44.8007 66.3618C44.9749 66.0706 44.9691 65.6804 44.7869 65.3693C44.5881 65.03 44.2196 64.8348 43.7742 64.8348C43.4734 64.8348 43.2159 64.8928 42.995 64.9946C43.1295 64.2064 42.9404 63.2471 42.3919 62.866C42.0788 62.6476 41.7147 62.5649 41.3904 62.6447C41.1109 62.7112 40.8896 62.888 40.749 63.1552C40.6007 63.4429 40.6098 63.7674 40.7739 64.0268C40.9301 64.2735 41.2056 64.4192 41.5137 64.4192H41.5252L41.5206 64.0375C41.3543 64.0212 41.1922 63.9639 41.1052 63.8267C41.0133 63.6825 41.0108 63.4959 41.0964 63.3305C41.1854 63.1608 41.3152 63.0548 41.483 63.0152C41.6938 62.9643 41.949 63.0265 42.1666 63.1771C42.6765 63.5312 42.8143 64.8433 42.4114 65.5163C42.41 65.5178 42.1916 65.8917 42.1916 66.4679C42.1916 66.81 42.5362 68.0847 44.0595 68.0981H44.0797C44.6484 68.0981 45.1629 67.8895 45.5679 67.4972C45.6781 67.3904 45.7726 67.2752 45.8553 67.1571V71.6625C40.5498 67.5213 37.1865 61.808 36.2898 55.3464H36.3828C36.4088 55.3683 39.0077 57.4905 39.2189 57.6779C39.3986 57.8377 39.6029 58.0165 39.6075 58.5877C39.6093 58.8557 39.4741 59.0451 39.361 59.1568C39.1397 59.3752 38.8392 59.4304 38.6403 59.4304C38.4408 59.4304 37.8844 59.3562 37.8659 58.8217C37.8594 58.6323 37.944 58.4725 38.0362 58.382C38.1096 58.312 38.2134 58.2844 38.3432 58.2852C38.5886 58.2972 38.6559 58.5608 38.6559 58.6132L39.046 58.6209C39.0507 58.3431 38.8316 57.9246 38.3595 57.9056C38.1204 57.8985 37.9118 57.967 37.7629 58.1119C37.5904 58.2802 37.4667 58.5354 37.4769 58.8358C37.5018 59.5781 38.2163 59.8128 38.6403 59.8128C38.9813 59.8128 39.3733 59.6849 39.6379 59.4255C39.8758 59.1921 39.9998 58.9009 39.9977 58.5842C39.9918 57.9034 39.7385 57.6234 39.4806 57.3951C39.3151 57.2481 37.7846 55.9692 37.0379 55.3464H41.2935L41.2892 59.9182H40.1333V60.3007H45.8557V64.924L42.6146 61.4551H40.1333V61.8361H42.4418L45.8557 65.4895V65.7914C45.8915 66.446 45.6301 66.9006 45.2946 67.2272C45.0632 67.4506 44.6655 67.7171 44.08 67.7171C44.075 67.7171 44.0689 67.7157 44.0631 67.7157C42.6924 67.7051 42.5814 66.4722 42.5814 66.4616C42.5781 66.2276 42.6132 65.795 42.8978 65.5129C43.0952 65.3157 43.3902 65.216 43.7745 65.216C44.1875 65.216 44.3748 65.4309 44.4496 65.5588C44.5639 65.754 44.57 65.9943 44.4648 66.1689C44.3686 66.3259 44.1785 66.4079 43.968 66.4064L43.9629 66.7882C44.3437 66.7917 44.6329 66.6404 44.8007 66.3618ZM45.8553 36.065V39.0518C44.4684 40.0366 42.5564 42.6579 41.6999 46.1799V41.6781C41.7437 41.7559 41.8246 41.8103 41.9215 41.8103C42.0636 41.8103 42.1793 41.6972 42.1793 41.5579C42.1793 41.4193 42.0636 41.3063 41.9215 41.3063C41.8246 41.3063 41.7437 41.3613 41.6999 41.4377V40.8298C41.7437 40.9068 41.8246 40.9605 41.9215 40.9605C42.0636 40.9605 42.1793 40.8482 42.1793 40.711C42.1793 40.571 42.0636 40.4579 41.9215 40.4579C41.8246 40.4579 41.7437 40.5124 41.6999 40.5908V39.9807C41.7437 40.0578 41.8246 40.1129 41.9215 40.1129C42.0636 40.1129 42.1793 39.9991 42.1793 39.8613C42.1793 39.7213 42.0636 39.6088 41.9215 39.6088C41.8246 39.6088 41.7437 39.6633 41.6999 39.7411V39.4838H41.6051C41.6869 39.4413 41.7451 39.3593 41.7451 39.2639C41.7451 39.1246 41.6297 39.0115 41.4873 39.0115C41.3452 39.0115 41.2299 39.1246 41.2299 39.2639C41.2299 39.3593 41.2877 39.4413 41.3691 39.4838H41.275V39.7658C41.2367 39.6747 41.1449 39.6088 41.0375 39.6088C40.8954 39.6088 40.7797 39.7213 40.7797 39.8613C40.7797 39.9991 40.8954 40.1129 41.0375 40.1129C41.1449 40.1129 41.2367 40.0472 41.275 39.956V40.6156C41.2367 40.5229 41.1449 40.4579 41.0375 40.4579C40.8954 40.4579 40.7797 40.571 40.7797 40.711C40.7797 40.8482 40.8954 40.9605 41.0375 40.9605C41.1449 40.9605 41.2367 40.8962 41.275 40.805V41.4646C41.2367 41.372 41.1449 41.3063 41.0375 41.3063C40.8954 41.3063 40.7797 41.4193 40.7797 41.5579C40.7797 41.6972 40.8954 41.8103 41.0375 41.8103C41.1449 41.8103 41.2367 41.7452 41.275 41.654C41.275 41.654 41.2794 49.2565 41.2779 49.7951L39.0142 49.788V47.3229C39.0576 47.4007 39.1393 47.4551 39.2362 47.4551C39.3783 47.4551 39.494 47.3434 39.494 47.2035C39.494 47.0649 39.3783 46.9525 39.2362 46.9525C39.1393 46.9525 39.0576 47.0062 39.0142 47.0847V46.4739C39.0576 46.5517 39.1393 46.6068 39.2362 46.6068C39.3783 46.6068 39.494 46.4937 39.494 46.3551C39.494 46.2159 39.3783 46.1027 39.2362 46.1027C39.1393 46.1027 39.0576 46.1571 39.0142 46.235V45.6256C39.0576 45.7041 39.1393 45.7578 39.2362 45.7578C39.3783 45.7578 39.494 45.6453 39.494 45.5061C39.494 45.3675 39.3783 45.2537 39.2362 45.2537C39.1393 45.2537 39.0576 45.3095 39.0142 45.3866V45.1293H38.9195C39.0015 45.0861 39.0591 45.0048 39.0591 44.9081C39.0591 44.7702 38.9437 44.6571 38.802 44.6571C38.6595 44.6571 38.5445 44.7702 38.5445 44.9081C38.5445 45.0048 38.602 45.0861 38.6841 45.1293H38.5894V45.4114C38.5507 45.3187 38.4596 45.2537 38.3518 45.2537C38.2097 45.2537 38.0944 45.3675 38.0944 45.5061C38.0944 45.6453 38.2097 45.7578 38.3518 45.7578C38.4596 45.7578 38.5507 45.692 38.5894 45.6008V46.259C38.5507 46.1685 38.4596 46.1027 38.3518 46.1027C38.2097 46.1027 38.0944 46.2159 38.0944 46.3551C38.0944 46.4937 38.2097 46.6068 38.3518 46.6068C38.4596 46.6068 38.5507 46.5418 38.5894 46.4513V47.1087C38.5507 47.0168 38.4596 46.9525 38.3518 46.9525C38.2097 46.9525 38.0944 47.0649 38.0944 47.2035C38.0944 47.3434 38.2097 47.4551 38.3518 47.4551C38.4596 47.4551 38.5507 47.3908 38.5894 47.2989V49.8863L36.7895 51.5193L37.0788 51.8226L38.602 50.3995V54.9643H36.2414C36.104 53.8989 36.0281 52.8179 36.0281 51.7236C36.0281 43.9047 39.6079 36.6606 45.8557 31.7851V35.6825H44.7721V36.0649L45.8553 36.065ZM44.0823 47.3231V59.9176H41.6999L41.7097 49.7851C41.7097 47.6933 42.0824 45.9167 42.7661 44.2625C43.5493 45.2706 44.0501 46.4343 44.0794 47.1928C44.0772 47.2352 44.0823 47.3231 44.0823 47.3231ZM42.947 43.8104C43.324 42.9316 43.7608 42.1505 44.2175 41.4817C44.6962 42.2551 45.1738 43.0638 45.5155 44.0507C44.9803 44.7902 44.5328 45.5466 44.2974 46.2041C44.0356 45.4469 43.5807 44.5795 42.947 43.8104ZM44.4727 47.3203C44.4727 47.3203 44.4781 47.2793 44.4843 47.2093C44.5317 46.4826 45.0827 45.3642 45.8553 44.2974V59.9179H44.4727V47.3203ZM44.5078 41.0759C44.9587 40.4736 45.4193 39.9823 45.8553 39.6253V43.6577C45.4757 42.663 44.9706 41.8218 44.5078 41.0759ZM41.2982 50.1899L41.2932 54.9645H38.9983V50.1941L41.2982 50.1899ZM45.0143 76.6848L48.4109 76.6905L48.4083 77.8153H45.0202L45.0143 76.6848ZM45.2396 78.197H50.616C50.1308 78.6968 50.2176 79.2305 50.4617 79.567C50.5556 79.6943 51.5941 80.8254 52.0117 81.2792C49.6181 80.5065 47.3475 79.4695 45.2396 78.197ZM51.8327 80.5143C51.3283 79.9643 50.8304 79.4157 50.7784 79.345C50.6598 79.1818 50.517 78.8488 50.9006 78.4585C51.0488 78.3066 51.1985 78.2323 51.3283 78.197H51.7116L52.9178 79.437C52.686 79.4525 52.4636 79.5317 52.2756 79.6816C52.0098 79.8887 51.8512 80.192 51.8327 80.5143ZM52.5005 81.2086C52.3653 81.0735 52.208 80.848 52.2192 80.5497C52.2275 80.3319 52.3396 80.1184 52.5189 79.9778C52.6958 79.8392 52.9163 79.7869 53.1357 79.8237C53.3234 79.8569 53.4716 79.9735 53.5338 80.1333C53.5465 80.1651 53.5541 80.1984 53.558 80.2316C53.6897 80.2401 53.8202 80.2414 53.9515 80.2521C53.9471 80.1665 53.9301 80.0817 53.8983 79.9996C53.8376 79.8427 53.7302 79.7127 53.5949 79.6151L52.2492 78.197H55.5456L54.7205 78.9456L54.9859 79.2263L56.119 78.197H56.1497V80.7985C56.0529 80.8296 55.9559 80.8621 55.8555 80.8953L55.7101 80.9441C55.5141 81.0085 55.308 81.0813 55.1008 81.1555C54.4793 81.3789 53.8372 81.6101 53.4065 81.6101C53.0952 81.6101 52.7395 81.4524 52.5005 81.2086ZM54.1026 81.8837C54.4616 81.7911 54.851 81.6518 55.235 81.5146C55.4393 81.4404 55.641 81.369 55.8352 81.3047L55.9813 81.2559C56.6918 81.019 57.2507 80.8374 58.4345 80.8607C58.9399 80.8727 59.7173 80.9123 60.5699 81.0304C60.7228 81.2778 61.2449 82.1792 61.6288 82.8465C59.0357 82.814 56.5142 82.486 54.1026 81.8837ZM61.9198 82.5751C60.8233 80.667 60.8139 80.6621 60.6638 80.6585C60.4469 80.6281 60.2346 80.6027 60.0289 80.5801V79.9142H60.952L60.9585 79.55H60.0289V78.197H64.2165C63.9576 78.4309 63.6466 78.713 63.5863 78.7788C63.2554 79.1372 63.2457 79.5345 63.5602 79.8442C63.7714 80.0492 64.0929 80.3559 64.3228 80.5737C64.0097 80.6077 63.6683 80.6522 63.2996 80.7109C63.1792 80.7109 63.1705 80.7144 61.9198 82.5751ZM62.2011 82.8515C62.6538 82.1792 63.2457 81.3047 63.4073 81.0778C63.8799 80.9052 65.2625 80.8423 65.512 80.8367C66.6986 80.8119 67.4767 81.0184 68.1876 81.2559L68.3347 81.3047C68.5274 81.369 68.7288 81.4404 68.9323 81.5139C69.3012 81.6454 69.675 81.779 70.0221 81.8717C67.519 82.5008 64.8988 82.8387 62.2011 82.8515ZM71.6689 81.2086C71.4296 81.4524 71.0734 81.6101 70.7629 81.6101C70.3319 81.6101 69.689 81.3789 69.0672 81.1555C68.8958 81.094 68.7283 81.0353 68.5639 80.9802L69.6518 79.8272C69.697 79.7798 70.0911 79.3507 70.0731 78.9329C70.0665 78.7731 69.9989 78.6297 69.8785 78.5236C69.7444 78.4027 69.6012 78.2924 69.4649 78.197H71.9379L70.5749 79.6165C70.4397 79.7127 70.3312 79.8427 70.2708 79.9996C70.2394 80.0809 70.2231 80.1644 70.2187 80.2471C70.3496 80.2351 70.4791 80.2372 70.6096 80.2422C70.6135 80.2061 70.6219 80.1693 70.6356 80.1333C70.6971 79.9735 70.8468 79.8583 71.0333 79.8237C71.2583 79.7869 71.4744 79.8399 71.6502 79.9778C71.8291 80.1184 71.9419 80.3319 71.9499 80.5497C71.9604 80.848 71.8038 81.0735 71.6689 81.2086ZM71.8935 79.6808C71.7048 79.5317 71.4838 79.4518 71.2514 79.437L72.4561 78.197H72.8433C72.9731 78.233 73.1199 78.3073 73.2678 78.4585C73.6522 78.8488 73.5101 79.1818 73.39 79.345C73.3379 79.4172 72.8397 79.965 72.336 80.5143C72.318 80.192 72.1589 79.8887 71.8935 79.6808ZM72.2008 81.2319C72.6437 80.7511 73.6171 79.6915 73.7075 79.567C73.9518 79.2305 74.039 78.6961 73.5516 78.197H78.8308C76.7648 79.444 74.5415 80.4648 72.2008 81.2319ZM79.0203 77.8153H75.6299V76.6905H79.0203V77.8153ZM79.4075 77.835L79.4107 76.3108L77.9497 76.3074V72.4849C84.6245 67.6141 88.6074 59.86 88.6074 51.7233C88.6074 43.5866 84.6223 35.8285 77.9445 30.9588V28.2937H78.9392V27.9119H77.9445V25.4376H77.541V27.0042L72.6816 24.4084V22.2027H72.3649V24.4274L67.2983 26.6819V23.9509H67.7607V22.5498H66.9841C66.4476 21.4244 65.2186 20.576 63.6783 20.2035C80.5983 21.0412 94.0987 34.7627 94.0987 51.5088C94.0987 62.5367 88.2378 72.2458 79.4069 77.8343L79.4075 77.835Z" fill="black"/>
</svg>
