<svg width="375px" height="1334px" viewBox="0 0 375 1334" version="1.1" xmlns="http://www.w3.org/2000/svg" xmlns:xlink="http://www.w3.org/1999/xlink">
    <!-- Generator: Sketch 48.2 (47327) - http://www.bohemiancoding.com/sketch -->
    <desc>Created with Sketch.</desc>
    <defs>
        <filter x="-1.9%" y="-0.4%" width="103.7%" height="101.1%" filterUnits="objectBoundingBox" id="filter-1">
            <feOffset dx="0" dy="2" in="SourceAlpha" result="shadowOffsetOuter1"/>
            <feGaussianBlur stdDeviation="2" in="shadowOffsetOuter1" result="shadowBlurOuter1"/>
            <feColorMatrix values="0 0 0 0 0   0 0 0 0 0   0 0 0 0 0  0 0 0 0.5 0" type="matrix" in="shadowBlurOuter1" result="shadowMatrixOuter1"/>
            <feMerge>
                <feMergeNode in="shadowMatrixOuter1"/>
                <feMergeNode in="SourceGraphic"/>
            </feMerge>
        </filter>
        <polygon id="path-2" points="1.42108547e-14 0 250.664894 0 250.664894 375 1.42108547e-14 375 1.42108547e-14 317.927918 1.42108547e-14 187.5"/>
    </defs>
    <g id="Page-1" stroke="none" stroke-width="1" fill="none" fill-rule="evenodd">
        <g id="m_06_Studiengangseite" transform="translate(0.000000, -5650.000000)">
            <g id="FOOTER" filter="url(#filter-1)" transform="translate(0.000000, 5651.000000)">
                <g id="Group-31">
                    <g id="Shape" transform="translate(187.500000, 125.500000) rotate(90.000000) translate(-187.500000, -125.500000) translate(62.000000, -62.000000)">
                        <mask id="mask-3" fill="white">
                            <use xlink:href="#path-2"/>
                        </mask>
                        <polygon id="Fill-1" fill="#B02F2C" mask="url(#mask-3)" points="-31.8342057 -70.566875 176.151787 375.235625 414.316292 375.235625 414.316292 -70.566875"/>
                        <polygon id="Fill-2" fill="#D8413E" opacity="0.700000048" mask="url(#mask-3)" points="252.074758 -70.566875 110.122771 233.491829 176.198974 375.235625 252.967414 375.235625 460.063224 -70.566875"/>
                        <polygon id="Fill-3" fill="#D8413E" opacity="0.6" mask="url(#mask-3)" points="44.0962701 375.706875 176.149271 375.706875 110.122771 233.389375"/>
                    </g>
                    <rect id="bg-red" fill="#CB3C38" x="0" y="249" width="375" height="1334"/>
                </g>
            </g>
        </g>
    </g>
</svg>