<svg width="26" height="26" viewBox="0 0 26 26" fill="none" xmlns="http://www.w3.org/2000/svg">
<circle cx="13" cy="13" r="12" stroke="#262A31" stroke-width="2"/>
<path d="M11.53 6.4H14.41L13.888 15.022H12.052L11.53 6.4ZM11.494 18.01C11.494 17.614 11.632 17.29 11.908 17.038C12.196 16.774 12.55 16.642 12.97 16.642C13.402 16.642 13.756 16.774 14.032 17.038C14.308 17.29 14.446 17.614 14.446 18.01C14.446 18.406 14.308 18.736 14.032 19C13.756 19.252 13.402 19.378 12.97 19.378C12.55 19.378 12.196 19.252 11.908 19C11.632 18.736 11.494 18.406 11.494 18.01Z" fill="#262A31"/>
</svg>
